<?xml version="1.0" encoding="UTF-8"?>
<svg width="294px" height="385px" viewBox="0 0 294 385" version="1.1" xmlns="http://www.w3.org/2000/svg" xmlns:xlink="http://www.w3.org/1999/xlink">
    <!-- Generator: Sketch 60.1 (88133) - https://sketch.com -->
    <title>etherscan-logo-circle copy</title>
    <desc>Created with Sketch.</desc>
    <g id="-" stroke="none" stroke-width="1" fill="none" fill-rule="evenodd">
        <g id="etherscan-logo-circle-copy" transform="translate(-1.000000, -1.000000)" fill="#3B43F2" fill-rule="nonzero">
            <g id="Group-5" transform="translate(0.000295, 0.995688)">
                <path d="M62.0547047,230.822312 C62.0541366,227.509946 63.3735533,224.333904 65.7209986,221.996968 C68.0684438,219.660033 71.2503749,218.354881 74.5627047,218.370312 L95.2997047,218.438312 C102.185039,218.438312 107.766705,224.019978 107.766705,230.905312 L107.766705,309.319312 C110.102705,308.627312 113.098705,307.889312 116.380705,307.119312 C121.072346,306.015146 124.388447,301.829134 124.389705,297.009312 L124.389705,199.743312 C124.389152,192.857264 129.970657,187.274416 136.856705,187.273312 L157.635705,187.273312 C164.521524,187.274968 170.102705,192.857492 170.102705,199.743312 L170.102705,290.019312 C170.102705,290.019312 175.302705,287.913312 180.371705,285.774312 C184.219675,284.146503 186.721258,280.375425 186.724705,276.197312 L186.724705,168.570312 C186.724439,165.264123 188.037563,162.093242 190.375204,159.755226 C192.712845,157.41721 195.883516,156.103577 199.189705,156.103312 L219.968705,156.103312 C226.8542,156.103312 232.436152,161.684816 232.436705,168.570312 L232.436705,257.195312 C250.450705,244.140312 268.707705,228.437312 283.195705,209.556312 C287.465148,203.989582 288.661054,196.653815 286.380705,190.019312 C266.295379,131.484086 211.616151,91.8660151 149.736705,91.0133118 C68.2977047,89.9193118 0.992704677,156.398312 0.999307618,237.847312 C0.920741542,263.620448 7.64746399,288.957769 20.5007047,311.297312 C24.1195685,317.535504 31.0244779,321.112549 38.2077047,320.470312 C42.1387047,320.124312 47.0327047,319.635312 52.8507047,318.952312 C58.0930181,318.355743 62.0544121,313.922458 62.0597047,308.646312 L62.0597047,230.822312 L258.999705,0.00431184742" id="Path_1"></path>
                <path d="M61.6017047,356.580312 C106.261552,389.068499 165.374479,393.745617 214.586714,368.684675 C263.79895,343.623732 294.78354,293.065166 294.774707,237.839312 C294.774707,234.458312 294.617705,231.115312 294.391705,227.790312 C240.749705,307.790312 141.705705,345.195312 61.6017047,356.583312" id="Path_2"></path>
            </g>
        </g>
    </g>
</svg>