<?xml version="1.0" encoding="UTF-8"?>
<svg width="92px" height="93px" viewBox="0 0 92 93" version="1.1" xmlns="http://www.w3.org/2000/svg" xmlns:xlink="http://www.w3.org/1999/xlink">
    <!-- Generator: Sketch 60.1 (88133) - https://sketch.com -->
    <title>icon1</title>
    <desc>Created with Sketch.</desc>
    <defs>
        <filter x="-26.3%" y="-25.6%" width="152.6%" height="151.3%" filterUnits="objectBoundingBox" id="filter-1">
            <feOffset dx="0" dy="2" in="SourceAlpha" result="shadowOffsetOuter1"></feOffset>
            <feGaussianBlur stdDeviation="4" in="shadowOffsetOuter1" result="shadowBlurOuter1"></feGaussianBlur>
            <feColorMatrix values="0 0 0 0 0   0 0 0 0 0   0 0 0 0 0  0 0 0 0.1 0" type="matrix" in="shadowBlurOuter1" result="shadowMatrixOuter1"></feColorMatrix>
            <feMerge>
                <feMergeNode in="shadowMatrixOuter1"></feMergeNode>
                <feMergeNode in="SourceGraphic"></feMergeNode>
            </feMerge>
        </filter>
        <path d="M60.6521586,10.2317905 C42.6521586,-7.54863177 27.3200407,0.537677283 24.6521586,14.0838212 C21.9842765,27.6299652 -2.79876327,30.3346666 0.261187502,46.3346666 C3.32113827,62.3346666 36.6521586,52.8346666 36.6521586,67.3346666 C36.6521586,81.8346666 75.1895892,81.3346666 75.1895892,62.3346666 C75.1895892,43.3346666 78.6521586,28.0122127 60.6521586,10.2317905 Z" id="path-2"></path>
    </defs>
    <g id="Page-1" stroke="none" stroke-width="1" fill="none" fill-rule="evenodd">
        <g id="icon1" transform="translate(8.000000, 5.000000)">
            <g id="Group-3">
                <g id="Feature-1" filter="url(#filter-1)" transform="translate(0.000000, 1.000000)">
                    <g id="Icon">
                        <g id="bgicon">
                            <mask id="mask-3" fill="white">
                                <use xlink:href="#path-2"></use>
                            </mask>
                            <use fill-opacity="0.2" fill="#FFFFFF" xlink:href="#path-2"></use>
                            <g id="Color/Blue" opacity="0.2" mask="url(#mask-3)" fill="#2EE8A9">
                                <rect id="Rectangle" x="0" y="0" width="76" height="78"></rect>
                            </g>
                        </g>
                    </g>
                </g>
                <g id="servidor" fill="#000000" fill-rule="nonzero">
                    <path d="M37.8408,53.63505 C38.02095,53.69385 38.21055,53.7231 38.4,53.7231 C38.58945,53.7231 38.7789,53.6937 38.95935,53.63505 C45.47175,51.5118 50.5395,46.0944 52.18485,39.4968 C52.33515,38.89395 51.9684,38.2833 51.3654,38.133 C50.76225,37.98285 50.15205,38.3496 50.0016,38.9523 C48.55395,44.7576 44.1153,49.5339 38.4,51.45015 C31.14285,49.02 26.2779,42.30435 26.2779,34.69335 L26.2779,28.19415 C28.9647,27.7269 31.11435,25.59405 31.58775,22.92615 L45.21225,22.92615 C45.68565,25.5942 47.8353,27.7269 50.5221,28.19415 L50.5221,34.06275 C50.5221,34.68405 51.02565,35.18775 51.6471,35.18775 C52.26855,35.18775 52.7721,34.68405 52.7721,34.06275 L52.7721,27.8052 C52.7721,26.8848 52.08195,26.11485 51.16695,26.0142 C49.19805,25.79745 47.60985,24.2259 47.39055,22.2771 C47.2875,21.3645 46.51785,20.6763 45.59985,20.6763 L31.19985,20.6763 C30.282,20.6763 29.5122,21.3645 29.40915,22.2774 C29.18985,24.2259 27.60165,25.79745 25.63275,26.0142 C24.7176,26.11485 24.0276,26.88495 24.0276,27.8052 L24.0276,34.69335 C24.0279,43.3293 29.5788,50.9415 37.8408,53.63505 L37.8408,53.63505 Z M45.4482,27.9924 C44.8701,27.4194 44.37435,26.76675 43.9749,26.0529 C43.67235,25.51215 43.0971,25.17615 42.4734,25.17615 L34.32645,25.17615 C33.70275,25.17615 33.1275,25.51215 32.8251,26.0526 C32.42535,26.7669 31.9296,27.41955 31.3515,27.99255 C30.77865,28.5606 30.12645,29.0481 29.41335,29.4417 C28.86705,29.7432 28.52775,30.3204 28.52775,30.94815 L28.52775,34.69335 C28.52775,40.75935 32.1282,46.2834 37.70055,48.7665 C37.9227,48.8655 38.1612,48.915 38.39985,48.915 C38.6385,48.915 38.877,48.8655 39.09915,48.7665 L39.0993,48.7665 C44.6715,46.2834 48.27195,40.7595 48.27195,34.69335 L48.27195,30.94815 C48.27195,30.3204 47.9325,29.7432 47.38635,29.4417 C46.6734,29.0481 46.02135,28.5606 45.4482,27.9924 Z M46.0221,34.69335 C46.0221,39.79305 43.038,44.4456 38.4,46.6125 C33.76185,44.44545 30.7779,39.7929 30.7779,34.69335 L30.7779,31.2534 C31.5654,30.78885 32.2902,30.2304 32.93565,29.59065 C33.58815,28.944 34.15695,28.21725 34.62975,27.4263 L42.1704,27.4263 C42.64305,28.21695 43.212,28.94385 43.8645,29.5905 C44.5101,30.23055 45.2349,30.78885 46.0224,31.2534 L46.0224,34.69335 L46.0221,34.69335 Z M14.7,35.92185 C14.7,33.73005 12.9168,31.94685 10.725,31.94685 C8.5332,31.94685 6.75,33.73005 6.75,35.92185 C6.75,38.11365 8.5332,39.89685 10.725,39.89685 C12.9168,39.89685 14.7,38.1138 14.7,35.92185 L14.7,35.92185 Z M9,35.92185 C9,34.9707 9.77385,34.19685 10.725,34.19685 C11.67615,34.19685 12.45,34.9707 12.45,35.92185 C12.45,36.873 11.67615,37.64685 10.725,37.64685 C9.77385,37.64685 9,36.87315 9,35.92185 Z M23.175,6.49905 C20.9832,6.49905 19.2,8.28225 19.2,10.47405 C19.2,12.66585 20.9832,14.44905 23.175,14.44905 C25.3668,14.44905 27.15,12.66585 27.15,10.47405 C27.15,8.28225 25.3668,6.49905 23.175,6.49905 Z M23.175,12.19905 C22.22385,12.19905 21.45,11.4252 21.45,10.47405 C21.45,9.5229 22.22385,8.74905 23.175,8.74905 C24.12615,8.74905 24.9,9.5229 24.9,10.47405 C24.9,11.4252 24.12615,12.19905 23.175,12.19905 Z M68.925,9.34905 L32.775,9.34905 C32.15355,9.34905 31.65,9.85275 31.65,10.47405 C31.65,11.09535 32.15355,11.59905 32.775,11.59905 L68.925,11.59905 C69.54645,11.59905 70.05,11.09535 70.05,10.47405 C70.05,9.85275 69.54645,9.34905 68.925,9.34905 Z M10.725,6.49905 C8.5332,6.49905 6.75,8.28225 6.75,10.47405 C6.75,12.66585 8.5332,14.44905 10.725,14.44905 C12.9168,14.44905 14.7,12.66585 14.7,10.47405 C14.7,8.28225 12.9168,6.49905 10.725,6.49905 Z M10.725,12.19905 C9.77385,12.19905 9,11.4252 9,10.47405 C9,9.5229 9.77385,8.74905 10.725,8.74905 C11.67615,8.74905 12.45,9.52275 12.45,10.47405 C12.45,11.42535 11.67615,12.19905 10.725,12.19905 Z M71.175,20.9475 C74.2767,20.9475 76.8,18.4242 76.8,15.3225 L76.8,5.625 C76.8,2.5233 74.2767,0 71.175,0 L5.625,0 C2.5233,0 0,2.5233 0,5.625 L0,15.3225 C0,18.4242 2.5233,20.9475 5.625,20.9475 L7.05345,20.9475 L7.05345,25.4475 L5.625,25.4475 C2.5233,25.4475 0,27.9708 0,31.0725 L0,40.7715 C0,43.8732 2.5233,46.3965 5.625,46.3965 L7.05345,46.3965 L7.05345,50.8965 L5.625,50.8965 C2.5233,50.8965 0,53.4198 0,56.5215 L0,66.219 C0,69.3207 2.5233,71.844 5.625,71.844 L7.05345,71.844 L7.05345,74.175 C7.05345,75.62235 8.2311,76.8 9.67845,76.8 L13.42845,76.8 C14.8758,76.8 16.05345,75.62235 16.05345,74.175 L16.05345,71.844 L60.7464,71.844 L60.7464,74.175 C60.7464,75.62235 61.92405,76.8 63.3714,76.8 L67.1214,76.8 C68.56875,76.8 69.7464,75.62235 69.7464,74.175 L69.7464,71.844 L71.17485,71.844 C74.27655,71.844 76.8,69.3207 76.8,66.219 L76.8,56.5215 C76.8,53.4198 74.27655,50.8965 71.17485,50.8965 L69.7464,50.8965 L69.7464,46.3965 L71.17485,46.3965 C74.27655,46.3965 76.8,43.8732 76.8,40.7715 L76.8,31.0725 C76.8,27.9708 74.27655,25.4475 71.17485,25.4475 L69.7464,25.4475 L69.7464,20.9475 L71.175,20.9475 Z M5.625,44.1465 C3.7641,44.1465 2.25,42.63255 2.25,40.7715 L2.25,31.0725 C2.25,29.21145 3.7641,27.6975 5.625,27.6975 L18.03195,27.6975 C17.5518,28.88235 17.17395,30.11025 16.9086,31.36815 C16.7805,31.9761 17.1693,32.57295 17.77725,32.70105 C18.3852,32.8293 18.98205,32.4405 19.1103,31.8324 C20.02875,27.477 22.44165,23.51385 25.90425,20.67285 C29.4138,17.79345 33.85155,16.2075 38.40015,16.2075 C49.27065,16.2075 58.1145,25.0512 58.1145,35.92185 C58.1145,46.7925 49.2705,55.6362 38.4,55.6362 C33.2898,55.6362 28.44465,53.68905 24.7575,50.1534 C23.11785,48.58125 21.783,46.76745 20.78595,44.79075 C20.77575,44.7693 20.76585,44.748 20.7543,44.7273 C19.5354,42.28875 18.8298,39.6039 18.70545,36.8163 C18.6777,36.1956 18.14805,35.7171 17.53155,35.7426 C16.9107,35.77035 16.4301,36.29595 16.45785,36.91665 C16.5699,39.4299 17.106,41.868 18.02535,44.1465 L14.94165,44.1465 C14.9373,44.1465 14.93295,44.1459 14.9286,44.1459 C14.92425,44.1459 14.9199,44.1465 14.91555,44.1465 L8.19165,44.1465 C8.1873,44.1465 8.18295,44.1459 8.1786,44.1459 C8.17425,44.1459 8.1699,44.1465 8.16555,44.1465 L5.625,44.1465 Z M9.30345,25.4475 L9.30345,20.9475 L13.80345,20.9475 L13.80345,25.4475 L9.30345,25.4475 Z M16.05345,25.4475 L16.05345,20.9475 L22.33485,20.9475 C21.0681,22.3083 19.97985,23.82255 19.09575,25.4475 L16.05345,25.4475 Z M54.45255,20.9475 L60.74655,20.9475 L60.74655,25.4475 L57.702,25.4475 C56.80995,23.81055 55.71495,22.2999 54.45255,20.9475 L54.45255,20.9475 Z M60.74655,46.3965 L60.74655,50.8965 L54.4524,50.8965 C55.71495,49.5441 56.80995,48.03345 57.70185,46.3965 L60.74655,46.3965 Z M22.3329,50.8965 L16.0536,50.8965 L16.0536,46.3965 L19.08555,46.3965 C19.96485,48.01455 21.0534,49.52595 22.3329,50.8965 Z M13.80345,46.3965 L13.80345,50.8965 L9.30345,50.8965 L9.30345,46.3965 L13.80345,46.3965 Z M13.80345,74.175 C13.80345,74.3817 13.6353,74.55 13.42845,74.55 L9.67845,74.55 C9.4716,74.55 9.30345,74.3817 9.30345,74.175 L9.30345,71.844 L13.80345,71.844 L13.80345,74.175 Z M67.49655,74.175 C67.49655,74.3817 67.3284,74.55 67.12155,74.55 L63.37155,74.55 C63.1647,74.55 62.99655,74.3817 62.99655,74.175 L62.99655,71.844 L67.49655,71.844 L67.49655,74.175 Z M71.175,53.1465 C73.0359,53.1465 74.55,54.66045 74.55,56.5215 L74.55,66.219 C74.55,68.08005 73.0359,69.594 71.175,69.594 L5.625,69.594 C3.7641,69.594 2.25,68.08005 2.25,66.219 L2.25,56.5215 C2.25,54.66045 3.7641,53.1465 5.625,53.1465 L24.7692,53.1465 C28.63785,56.2161 33.40515,57.8862 38.4,57.8862 C43.5375,57.8862 48.26805,56.1126 52.01325,53.1465 L71.175,53.1465 Z M62.99655,50.8965 L62.99655,46.3965 L67.49655,46.3965 L67.49655,50.8965 L62.99655,50.8965 Z M71.175,27.6975 C73.0359,27.6975 74.55,29.21145 74.55,31.0725 L74.55,40.7715 C74.55,42.63255 73.0359,44.1465 71.175,44.1465 L68.6346,44.1465 C68.63025,44.1465 68.6259,44.1459 68.62155,44.1459 C68.6172,44.1459 68.61285,44.1465 68.6085,44.1465 L61.8846,44.1465 C61.88025,44.1465 61.8759,44.1459 61.87155,44.1459 C61.8672,44.1459 61.86285,44.1465 61.8585,44.1465 L58.7652,44.1465 C59.66175,41.93475 60.2091,39.54555 60.33585,37.047 L68.925,37.047 C69.54645,37.047 70.05,36.5433 70.05,35.922 C70.05,35.3007 69.54645,34.797 68.925,34.797 L60.33585,34.797 C60.20925,32.29845 59.66175,29.90925 58.7652,27.6975 L71.175,27.6975 Z M62.99655,25.4475 L62.99655,20.9475 L67.49655,20.9475 L67.49655,25.4475 L62.99655,25.4475 Z M52.0134,18.6975 C48.2682,15.73125 43.5375,13.95765 38.4,13.95765 C33.45855,13.95765 28.63425,15.6387 24.77115,18.6975 L5.625,18.6975 C3.7641,18.6975 2.25,17.18355 2.25,15.3225 L2.25,5.625 C2.25,3.76395 3.7641,2.25 5.625,2.25 L71.175,2.25 C73.0359,2.25 74.55,3.76395 74.55,5.625 L74.55,15.3225 C74.55,17.18355 73.0359,18.6975 71.175,18.6975 L52.0134,18.6975 Z M31.65,61.3698 C31.65,61.9911 32.15355,62.4948 32.775,62.4948 L68.925,62.4948 C69.54645,62.4948 70.05,61.9911 70.05,61.3698 C70.05,60.7485 69.54645,60.2448 68.925,60.2448 L32.775,60.2448 C32.15355,60.2448 31.65,60.7485 31.65,61.3698 Z M23.175,57.3948 C20.9832,57.3948 19.2,59.178 19.2,61.3698 C19.2,63.5616 20.9832,65.3448 23.175,65.3448 C25.3668,65.3448 27.15,63.5616 27.15,61.3698 C27.15,59.178 25.3668,57.3948 23.175,57.3948 Z M23.175,63.0948 C22.22385,63.0948 21.45,62.32095 21.45,61.3698 C21.45,60.41865 22.22385,59.6448 23.175,59.6448 C24.12615,59.6448 24.9,60.41865 24.9,61.3698 C24.9,62.32095 24.12615,63.0948 23.175,63.0948 Z M10.725,57.3948 C8.5332,57.3948 6.75,59.178 6.75,61.3698 C6.75,63.5616 8.5332,65.3448 10.725,65.3448 C12.9168,65.3448 14.7,63.5616 14.7,61.3698 C14.7,59.178 12.9168,57.3948 10.725,57.3948 Z M10.725,63.0948 C9.77385,63.0948 9,62.32095 9,61.3698 C9,60.41865 9.77385,59.6448 10.725,59.6448 C11.67615,59.6448 12.45,60.41865 12.45,61.3698 C12.45,62.32095 11.67615,63.0948 10.725,63.0948 Z" id="Shape"></path>
                </g>
            </g>
        </g>
    </g>
</svg>