<?xml version="1.0" encoding="UTF-8"?>
<svg width="92px" height="93px" viewBox="0 0 92 93" version="1.1" xmlns="http://www.w3.org/2000/svg" xmlns:xlink="http://www.w3.org/1999/xlink">
    <!-- Generator: Sketch 60.1 (88133) - https://sketch.com -->
    <title>icon2</title>
    <desc>Created with Sketch.</desc>
    <defs>
        <filter x="-26.3%" y="-25.6%" width="152.6%" height="151.3%" filterUnits="objectBoundingBox" id="filter-1">
            <feOffset dx="0" dy="2" in="SourceAlpha" result="shadowOffsetOuter1"></feOffset>
            <feGaussianBlur stdDeviation="4" in="shadowOffsetOuter1" result="shadowBlurOuter1"></feGaussianBlur>
            <feColorMatrix values="0 0 0 0 0   0 0 0 0 0   0 0 0 0 0  0 0 0 0.1 0" type="matrix" in="shadowBlurOuter1" result="shadowMatrixOuter1"></feColorMatrix>
            <feMerge>
                <feMergeNode in="shadowMatrixOuter1"></feMergeNode>
                <feMergeNode in="SourceGraphic"></feMergeNode>
            </feMerge>
        </filter>
        <path d="M60.6521586,10.2317905 C42.6521586,-7.54863177 27.3200407,0.537677283 24.6521586,14.0838212 C21.9842765,27.6299652 -2.79876327,30.3346666 0.261187502,46.3346666 C3.32113827,62.3346666 36.6521586,52.8346666 36.6521586,67.3346666 C36.6521586,81.8346666 75.1895892,81.3346666 75.1895892,62.3346666 C75.1895892,43.3346666 78.6521586,28.0122127 60.6521586,10.2317905 Z" id="path-2"></path>
    </defs>
    <g id="Page-1" stroke="none" stroke-width="1" fill="none" fill-rule="evenodd">
        <g id="icon2" transform="translate(8.000000, 1.000000)">
            <g id="Group-26">
                <g id="Feature-4" filter="url(#filter-1)" transform="translate(0.000000, 5.000000)">
                    <g id="Icon">
                        <g id="bgicon">
                            <mask id="mask-3" fill="white">
                                <use xlink:href="#path-2"></use>
                            </mask>
                            <use fill-opacity="0.2" fill="#FFFFFF" xlink:href="#path-2"></use>
                            <g id="Color/Blue" opacity="0.2" mask="url(#mask-3)" fill="#FF4545">
                                <rect id="Rectangle" x="0" y="0" width="76" height="78"></rect>
                            </g>
                        </g>
                    </g>
                </g>
                <path d="M55.95825,59.11395 L58.35225,56.7198 L56.7612,55.12905 L55.02645,56.86395 L41.66955,56.86395 C44.25855,55.209 46.3107,52.7292 47.4015,49.71945 L45.2862,48.9528 C43.57125,53.6847 39.03585,56.86395 34.00035,56.86395 C30.1773,56.86395 26.6706,55.1046 24.37965,52.03725 L22.57695,53.3838 C23.6226,54.7839 24.88245,55.95345 26.2944,56.86395 L14.12145,56.86395 L10.28055,53.0232 L10.28055,36.705 L14.12145,32.86425 L26.3223,32.86425 C22.3725,35.4003 19.75035,39.83175 19.75035,44.8641 C19.75035,47.13195 20.26815,49.30095 21.2892,51.31065 L23.29515,50.2914 C22.43595,48.6006 22.00035,46.7745 22.00035,44.8641 C22.00035,38.24745 27.38355,32.86425 34.0002,32.86425 C36.0024,32.86425 37.98375,33.36675 39.72975,34.31745 L40.52085,32.86425 L40.8708,32.86425 L40.8708,30.61425 L13.1895,30.61425 L8.0304,35.7732 L8.0304,53.9553 L13.1895,59.11425 L55.95825,59.11425 L55.95825,59.11395 Z" id="Path" fill="#000000" fill-rule="nonzero"></path>
                <path d="M34.0215,40.6539 C34.02555,40.6539 34.0299,40.6539 34.0341,40.65405 C34.4313,40.6572 34.80375,40.815 35.0823,41.0985 C35.361,41.38185 35.51265,41.75655 35.50935,42.15375 L37.75935,42.1725 C37.7676,41.17425 37.3866,40.2324 36.68655,39.5205 C36.25605,39.08295 35.7366,38.7651 35.1684,38.58285 L35.1684,36.15405 L32.9184,36.15405 L32.9184,38.57205 C32.35395,38.74575 31.8339,39.05115 31.401,39.477 C30.68925,40.17705 30.29265,41.11245 30.28455,42.11085 C30.26775,44.1717 31.9305,45.86235 33.9912,45.8793 C34.3884,45.88245 34.76085,46.04025 35.0394,46.3236 C35.31795,46.6071 35.46975,46.98195 35.46645,47.3793 C35.4633,47.7765 35.3055,48.1488 35.02215,48.42735 C34.7418,48.70305 34.37205,48.8544 33.97935,48.8544 C33.97515,48.8544 33.9708,48.8544 33.9666,48.85425 C33.5694,48.8511 33.19695,48.6933 32.9184,48.40995 C32.6397,48.1266 32.48805,47.75175 32.49135,47.35455 L30.24135,47.3358 C30.2331,48.33405 30.6141,49.27605 31.31415,49.9878 C31.76625,50.4474 32.31675,50.77455 32.9184,50.95155 L32.9184,53.35425 L35.1684,53.35425 L35.1684,50.9109 C35.69985,50.733 36.1884,50.436 36.5997,50.03145 C37.3116,49.33125 37.7082,48.396 37.7163,47.3976 C37.7244,46.3992 37.34355,45.4575 36.64335,44.74575 C35.9433,44.03385 35.0079,43.63725 34.0095,43.62915 C33.1893,43.6224 32.52765,42.94965 32.5344,42.12915 C32.53755,41.73195 32.69535,41.3595 32.9787,41.08095 C33.25905,40.8054 33.62865,40.6539 34.0215,40.6539 L34.0215,40.6539 Z" id="Path" fill="#000000" fill-rule="nonzero"></path>
                <path d="M79.76925,30.96915 C79.5531,26.15835 78.198,21.3372 75.9537,17.394 L75.5988,16.7706 L74.8839,16.8294 C73.40445,16.9509 72.0516,17.76585 70.97085,18.7866 C70.5591,16.15185 69.7698,13.5354 68.63535,11.1039 C66.55215,6.639 63.4125,3.10785 59.79465,1.16115 L57.8166,0.0966 L58.149,2.31825 C58.6896,5.9313 56.89545,8.1891 54.99585,10.57935 L56.75745,11.97915 C58.4181,9.88935 60.26115,7.56975 60.4773,4.25805 C65.9451,8.3175 69.52635,16.60335 69.0036,24.50505 C68.7555,28.2576 67.31985,34.93815 60.4944,37.51965 L61.29045,39.624 C67.13595,37.4133 70.76565,31.95675 71.2488,24.65355 C71.30865,23.7477 71.3187,22.8282 71.2803,21.9033 C71.9346,20.91555 73.11975,19.6524 74.388,19.2183 C78.39495,26.8293 78.6354,36.79875 74.8953,43.2309 C72.16785,47.9214 67.5675,50.4006 61.59165,50.4006 C59.445,50.4006 57.41025,49.9845 55.5435,49.1637 L54.63795,51.2232 C56.7918,52.1703 59.13135,52.6506 61.59165,52.6506 C70.2114,52.6506 74.64165,48.1431 76.84035,44.3619 C78.98445,40.67445 79.9971,36.04335 79.76925,30.96915 Z" id="Path" fill="#613DE2" fill-rule="nonzero"></path>
                <path d="M58.5723,38.0907 L56.3373,38.4156 L56.59005,40.65015 C57.4074,40.584 58.20825,40.4673 58.97025,40.3038 L58.5723,38.0907 Z" id="Path" fill="#613DE2" fill-rule="nonzero"></path>
                <path d="M52.50645,50.0937 L53.7006,48.18675 C49.3266,45.44775 46.2426,40.21365 45.45105,34.185 C44.76015,28.923 45.9453,23.84475 48.6381,20.3067 C50.04525,21.7215 52.0314,22.1877 53.9406,21.4551 L55.04385,21.03165 L54.56655,19.9506 C53.43525,17.388 54.05835,15.66435 55.43025,13.71405 L53.59005,12.4194 C52.3065,14.244 51.1698,16.49325 52.03185,19.54725 C51.08865,19.5129 50.23005,18.95505 49.65375,17.95305 L48.8943,16.63245 L47.8557,17.74695 C44.1057,21.7704 42.37275,28.0251 43.2201,34.4781 C44.0982,41.1648 47.5698,47.0025 52.50645,50.0937 L52.50645,50.0937 Z" id="Path" fill="#613DE2" fill-rule="nonzero"></path>
                <polygon id="Path" fill="#000000" fill-rule="nonzero" points="5.25 28.25415 17.625 28.25415 17.625 26.00415 12 26.00415 12 21.50415 42.59685 21.50415 42.59685 19.25415 9.75 19.25415 9.75 26.00415 3 26.00415 3 63.50415 12.09255 63.50415 12.09255 61.25415 5.25 61.25415"></polygon>
                <polygon id="Path" fill="#000000" fill-rule="nonzero" points="19.875 26.00415 40.8528 26.00415 40.8528 28.25415 19.875 28.25415"></polygon>
                <polygon id="Path" fill="#000000" fill-rule="nonzero" points="62.83665 61.25415 14.34255 61.25415 14.34255 63.50415 65.08665 63.50415 65.08665 54.7707 62.83665 54.7707"></polygon>
                <polygon id="Path" fill="#000000" fill-rule="nonzero" points="40.21575 43.62915 42.46575 43.62915 42.46575 45.87915 40.21575 45.87915"></polygon>
                <polygon id="Path" fill="#000000" fill-rule="nonzero" points="25.5345 43.62915 27.7845 43.62915 27.7845 45.87915 25.5345 45.87915"></polygon>
            </g>
        </g>
    </g>
</svg>