<?xml version="1.0" encoding="UTF-8"?>
<svg width="20px" height="16px" viewBox="0 0 20 16" version="1.1" xmlns="http://www.w3.org/2000/svg" xmlns:xlink="http://www.w3.org/1999/xlink">
    <!-- Generator: Sketch 60.1 (88133) - https://sketch.com -->
    <title>twitter</title>
    <desc>Created with Sketch.</desc>
    <g id="-" stroke="none" stroke-width="1" fill="none" fill-rule="evenodd">
        <g id="twitter" fill="#3B43F2" fill-rule="nonzero">
            <path d="M19.6,1.885275 C18.871125,2.205 18.094475,2.416925 17.28475,2.519825 C18.11775,2.022475 18.753525,1.240925 19.052425,0.2989 C18.275775,0.76195 17.418275,1.089025 16.504425,1.27155 C15.766975,0.486325 14.715925,0 13.569325,0 C11.344725,0 9.553775,1.80565 9.553775,4.019225 C9.553775,4.337725 9.580725,4.643975 9.646875,4.935525 C6.3063,4.7726 3.350375,3.171525 1.36465,0.73255 C1.017975,1.334025 0.814625,2.022475 0.814625,2.7636 C0.814625,4.1552 1.53125,5.388775 2.59945,6.10295 C1.953875,6.0907 1.32055,5.903275 0.784,5.60805 C0.784,5.6203 0.784,5.636225 0.784,5.65215 C0.784,7.6048 2.176825,9.2267 4.0033,9.600325 C3.676225,9.68975 3.31975,9.732625 2.9498,9.732625 C2.69255,9.732625 2.43285,9.717925 2.189075,9.664025 C2.7097,11.2553 4.18705,12.425175 5.9437,12.46315 C4.5766,13.532575 2.840775,14.176925 0.961625,14.176925 C0.6321,14.176925 0.31605,14.162225 0,14.1218 C1.779925,15.269625 3.889375,15.925 6.1642,15.925 C13.5583,15.925 17.6008,9.8 17.6008,4.49085 C17.6008,4.313225 17.594675,4.141725 17.5861,3.97145 C18.383575,3.4055 19.05365,2.698675 19.6,1.885275 Z" id="Path"></path>
        </g>
    </g>
</svg>