<svg xmlns="http://www.w3.org/2000/svg" width="76" height="78" viewBox="0 0 76 78"><defs><clipPath id="a"><path d="M60.652 10.232c-18-17.78-33.332-9.694-36 3.852-2.668 13.546-27.45 16.25-24.39 32.25 3.06 16 36.39 6.5 36.39 21s38.538 14 38.538-5 3.462-34.322-14.538-52.102z"/></clipPath></defs><path fill="#fff" fill-opacity=".2" d="M60.652 10.232c-18-17.78-33.332-9.694-36 3.852-2.668 13.546-27.45 16.25-24.39 32.25 3.06 16 36.39 6.5 36.39 21s38.538 14 38.538-5 3.462-34.322-14.538-52.102z"/><g clip-path="url(#a)" opacity=".2"><path fill="#3b43f2" d="M0 0h76v78H0z" opacity=".2"/></g><g fill="none" stroke-linecap="round" stroke-linejoin="round" stroke-miterlimit="20" stroke-width="3"><path stroke="#333" d="M32 67v0h12v0-22 0H32v0zm-22 0v0h12v0-14 0H10v0zm44 0v0h12v0-34 0H54v0z"/><path stroke="#3b43f2" d="M54 11v0h12v12m0-12S44.814 39.892 10 40.968"/></g></svg>