<svg xmlns="http://www.w3.org/2000/svg" width="230" height="230" viewBox="0 0 230 230"><defs><linearGradient id="b" x1="140.53" x2="101" y1="3.97" y2="-5.06" gradientUnits="userSpaceOnUse"><stop offset="0" stop-color="#2ee8a9"/><stop offset="1" stop-color="#14aeea"/><stop offset="1" stop-color="#14aeea"/></linearGradient><linearGradient id="au" x1="20.53" x2="-19" y1="63.97" y2="54.94" gradientUnits="userSpaceOnUse"><stop offset="0" stop-color="#2ee8a9"/><stop offset="1" stop-color="#14aeea"/><stop offset="1" stop-color="#14aeea"/></linearGradient><linearGradient id="c" x1="20.53" x2="-19" y1="123.97" y2="114.94" gradientUnits="userSpaceOnUse"><stop offset="0" stop-color="#2ee8a9"/><stop offset="1" stop-color="#14aeea"/><stop offset="1" stop-color="#14aeea"/></linearGradient><linearGradient id="d" x1="140.53" x2="101" y1="123.97" y2="114.94" gradientUnits="userSpaceOnUse"><stop offset="0" stop-color="#2ee8a9"/><stop offset="1" stop-color="#14aeea"/><stop offset="1" stop-color="#14aeea"/></linearGradient><linearGradient id="e" x1="40.53" x2="1" y1="3.97" y2="-5.06" gradientUnits="userSpaceOnUse"><stop offset="0" stop-color="#2ee8a9"/><stop offset="1" stop-color="#14aeea"/><stop offset="1" stop-color="#14aeea"/></linearGradient><linearGradient id="f" x1="160.53" x2="121" y1="3.97" y2="-5.06" gradientUnits="userSpaceOnUse"><stop offset="0" stop-color="#2ee8a9"/><stop offset="1" stop-color="#14aeea"/><stop offset="1" stop-color="#14aeea"/></linearGradient><linearGradient id="g" x1="40.53" x2="1" y1="123.97" y2="114.94" gradientUnits="userSpaceOnUse"><stop offset="0" stop-color="#2ee8a9"/><stop offset="1" stop-color="#14aeea"/><stop offset="1" stop-color="#14aeea"/></linearGradient><linearGradient id="h" x1="160.53" x2="121" y1="123.97" y2="114.94" gradientUnits="userSpaceOnUse"><stop offset="0" stop-color="#2ee8a9"/><stop offset="1" stop-color="#14aeea"/><stop offset="1" stop-color="#14aeea"/></linearGradient><linearGradient id="i" x1="60.53" x2="21" y1="3.97" y2="-5.06" gradientUnits="userSpaceOnUse"><stop offset="0" stop-color="#2ee8a9"/><stop offset="1" stop-color="#14aeea"/><stop offset="1" stop-color="#14aeea"/></linearGradient><linearGradient id="j" x1="180.53" x2="141" y1="3.97" y2="-5.06" gradientUnits="userSpaceOnUse"><stop offset="0" stop-color="#2ee8a9"/><stop offset="1" stop-color="#14aeea"/><stop offset="1" stop-color="#14aeea"/></linearGradient><linearGradient id="k" x1="60.53" x2="21" y1="123.97" y2="114.94" gradientUnits="userSpaceOnUse"><stop offset="0" stop-color="#2ee8a9"/><stop offset="1" stop-color="#14aeea"/><stop offset="1" stop-color="#14aeea"/></linearGradient><linearGradient id="l" x1="180.53" x2="141" y1="123.97" y2="114.94" gradientUnits="userSpaceOnUse"><stop offset="0" stop-color="#2ee8a9"/><stop offset="1" stop-color="#14aeea"/><stop offset="1" stop-color="#14aeea"/></linearGradient><linearGradient id="m" x1="80.53" x2="41" y1="3.97" y2="-5.06" gradientUnits="userSpaceOnUse"><stop offset="0" stop-color="#2ee8a9"/><stop offset="1" stop-color="#14aeea"/><stop offset="1" stop-color="#14aeea"/></linearGradient><linearGradient id="n" x1="200.53" x2="161" y1="3.97" y2="-5.06" gradientUnits="userSpaceOnUse"><stop offset="0" stop-color="#2ee8a9"/><stop offset="1" stop-color="#14aeea"/><stop offset="1" stop-color="#14aeea"/></linearGradient><linearGradient id="o" x1="80.53" x2="41" y1="123.97" y2="114.94" gradientUnits="userSpaceOnUse"><stop offset="0" stop-color="#2ee8a9"/><stop offset="1" stop-color="#14aeea"/><stop offset="1" stop-color="#14aeea"/></linearGradient><linearGradient id="p" x1="200.53" x2="161" y1="123.97" y2="114.94" gradientUnits="userSpaceOnUse"><stop offset="0" stop-color="#2ee8a9"/><stop offset="1" stop-color="#14aeea"/><stop offset="1" stop-color="#14aeea"/></linearGradient><linearGradient id="q" x1="100.53" x2="61" y1="3.97" y2="-5.06" gradientUnits="userSpaceOnUse"><stop offset="0" stop-color="#2ee8a9"/><stop offset="1" stop-color="#14aeea"/><stop offset="1" stop-color="#14aeea"/></linearGradient><linearGradient id="r" x1="220.53" x2="181" y1="3.97" y2="-5.06" gradientUnits="userSpaceOnUse"><stop offset="0" stop-color="#2ee8a9"/><stop offset="1" stop-color="#14aeea"/><stop offset="1" stop-color="#14aeea"/></linearGradient><linearGradient id="s" x1="100.53" x2="61" y1="123.97" y2="114.94" gradientUnits="userSpaceOnUse"><stop offset="0" stop-color="#2ee8a9"/><stop offset="1" stop-color="#14aeea"/><stop offset="1" stop-color="#14aeea"/></linearGradient><linearGradient id="t" x1="220.53" x2="181" y1="123.97" y2="114.94" gradientUnits="userSpaceOnUse"><stop offset="0" stop-color="#2ee8a9"/><stop offset="1" stop-color="#14aeea"/><stop offset="1" stop-color="#14aeea"/></linearGradient><linearGradient id="u" x1="120.53" x2="81" y1="3.97" y2="-5.06" gradientUnits="userSpaceOnUse"><stop offset="0" stop-color="#2ee8a9"/><stop offset="1" stop-color="#14aeea"/><stop offset="1" stop-color="#14aeea"/></linearGradient><linearGradient id="v" x1="240.53" x2="201" y1="3.97" y2="-5.06" gradientUnits="userSpaceOnUse"><stop offset="0" stop-color="#2ee8a9"/><stop offset="1" stop-color="#14aeea"/><stop offset="1" stop-color="#14aeea"/></linearGradient><linearGradient id="w" x1="120.53" x2="81" y1="123.97" y2="114.94" gradientUnits="userSpaceOnUse"><stop offset="0" stop-color="#2ee8a9"/><stop offset="1" stop-color="#14aeea"/><stop offset="1" stop-color="#14aeea"/></linearGradient><linearGradient id="x" x1="240.53" x2="201" y1="123.97" y2="114.94" gradientUnits="userSpaceOnUse"><stop offset="0" stop-color="#2ee8a9"/><stop offset="1" stop-color="#14aeea"/><stop offset="1" stop-color="#14aeea"/></linearGradient><linearGradient id="y" x1="20.53" x2="-19" y1="23.97" y2="14.94" gradientUnits="userSpaceOnUse"><stop offset="0" stop-color="#2ee8a9"/><stop offset="1" stop-color="#14aeea"/><stop offset="1" stop-color="#14aeea"/></linearGradient><linearGradient id="z" x1="140.53" x2="101" y1="23.97" y2="14.94" gradientUnits="userSpaceOnUse"><stop offset="0" stop-color="#2ee8a9"/><stop offset="1" stop-color="#14aeea"/><stop offset="1" stop-color="#14aeea"/></linearGradient><linearGradient id="A" x1="20.53" x2="-19" y1="143.97" y2="134.94" gradientUnits="userSpaceOnUse"><stop offset="0" stop-color="#2ee8a9"/><stop offset="1" stop-color="#14aeea"/><stop offset="1" stop-color="#14aeea"/></linearGradient><linearGradient id="B" x1="140.53" x2="101" y1="143.97" y2="134.94" gradientUnits="userSpaceOnUse"><stop offset="0" stop-color="#2ee8a9"/><stop offset="1" stop-color="#14aeea"/><stop offset="1" stop-color="#14aeea"/></linearGradient><linearGradient id="C" x1="40.53" x2="1" y1="23.97" y2="14.94" gradientUnits="userSpaceOnUse"><stop offset="0" stop-color="#2ee8a9"/><stop offset="1" stop-color="#14aeea"/><stop offset="1" stop-color="#14aeea"/></linearGradient><linearGradient id="D" x1="160.53" x2="121" y1="23.97" y2="14.94" gradientUnits="userSpaceOnUse"><stop offset="0" stop-color="#2ee8a9"/><stop offset="1" stop-color="#14aeea"/><stop offset="1" stop-color="#14aeea"/></linearGradient><linearGradient id="E" x1="40.53" x2="1" y1="143.97" y2="134.94" gradientUnits="userSpaceOnUse"><stop offset="0" stop-color="#2ee8a9"/><stop offset="1" stop-color="#14aeea"/><stop offset="1" stop-color="#14aeea"/></linearGradient><linearGradient id="F" x1="160.53" x2="121" y1="143.97" y2="134.94" gradientUnits="userSpaceOnUse"><stop offset="0" stop-color="#2ee8a9"/><stop offset="1" stop-color="#14aeea"/><stop offset="1" stop-color="#14aeea"/></linearGradient><linearGradient id="G" x1="60.53" x2="21" y1="23.97" y2="14.94" gradientUnits="userSpaceOnUse"><stop offset="0" stop-color="#2ee8a9"/><stop offset="1" stop-color="#14aeea"/><stop offset="1" stop-color="#14aeea"/></linearGradient><linearGradient id="H" x1="180.53" x2="141" y1="23.97" y2="14.94" gradientUnits="userSpaceOnUse"><stop offset="0" stop-color="#2ee8a9"/><stop offset="1" stop-color="#14aeea"/><stop offset="1" stop-color="#14aeea"/></linearGradient><linearGradient id="I" x1="60.53" x2="21" y1="143.97" y2="134.94" gradientUnits="userSpaceOnUse"><stop offset="0" stop-color="#2ee8a9"/><stop offset="1" stop-color="#14aeea"/><stop offset="1" stop-color="#14aeea"/></linearGradient><linearGradient id="J" x1="180.53" x2="141" y1="143.97" y2="134.94" gradientUnits="userSpaceOnUse"><stop offset="0" stop-color="#2ee8a9"/><stop offset="1" stop-color="#14aeea"/><stop offset="1" stop-color="#14aeea"/></linearGradient><linearGradient id="K" x1="80.53" x2="41" y1="23.97" y2="14.94" gradientUnits="userSpaceOnUse"><stop offset="0" stop-color="#2ee8a9"/><stop offset="1" stop-color="#14aeea"/><stop offset="1" stop-color="#14aeea"/></linearGradient><linearGradient id="L" x1="200.53" x2="161" y1="23.97" y2="14.94" gradientUnits="userSpaceOnUse"><stop offset="0" stop-color="#2ee8a9"/><stop offset="1" stop-color="#14aeea"/><stop offset="1" stop-color="#14aeea"/></linearGradient><linearGradient id="M" x1="80.53" x2="41" y1="143.97" y2="134.94" gradientUnits="userSpaceOnUse"><stop offset="0" stop-color="#2ee8a9"/><stop offset="1" stop-color="#14aeea"/><stop offset="1" stop-color="#14aeea"/></linearGradient><linearGradient id="N" x1="200.53" x2="161" y1="143.97" y2="134.94" gradientUnits="userSpaceOnUse"><stop offset="0" stop-color="#2ee8a9"/><stop offset="1" stop-color="#14aeea"/><stop offset="1" stop-color="#14aeea"/></linearGradient><linearGradient id="O" x1="100.53" x2="61" y1="23.97" y2="14.94" gradientUnits="userSpaceOnUse"><stop offset="0" stop-color="#2ee8a9"/><stop offset="1" stop-color="#14aeea"/><stop offset="1" stop-color="#14aeea"/></linearGradient><linearGradient id="P" x1="220.53" x2="181" y1="23.97" y2="14.94" gradientUnits="userSpaceOnUse"><stop offset="0" stop-color="#2ee8a9"/><stop offset="1" stop-color="#14aeea"/><stop offset="1" stop-color="#14aeea"/></linearGradient><linearGradient id="Q" x1="100.53" x2="61" y1="143.97" y2="134.94" gradientUnits="userSpaceOnUse"><stop offset="0" stop-color="#2ee8a9"/><stop offset="1" stop-color="#14aeea"/><stop offset="1" stop-color="#14aeea"/></linearGradient><linearGradient id="R" x1="220.53" x2="181" y1="143.97" y2="134.94" gradientUnits="userSpaceOnUse"><stop offset="0" stop-color="#2ee8a9"/><stop offset="1" stop-color="#14aeea"/><stop offset="1" stop-color="#14aeea"/></linearGradient><linearGradient id="S" x1="120.53" x2="81" y1="23.97" y2="14.94" gradientUnits="userSpaceOnUse"><stop offset="0" stop-color="#2ee8a9"/><stop offset="1" stop-color="#14aeea"/><stop offset="1" stop-color="#14aeea"/></linearGradient><linearGradient id="T" x1="240.53" x2="201" y1="23.97" y2="14.94" gradientUnits="userSpaceOnUse"><stop offset="0" stop-color="#2ee8a9"/><stop offset="1" stop-color="#14aeea"/><stop offset="1" stop-color="#14aeea"/></linearGradient><linearGradient id="U" x1="120.53" x2="81" y1="143.97" y2="134.94" gradientUnits="userSpaceOnUse"><stop offset="0" stop-color="#2ee8a9"/><stop offset="1" stop-color="#14aeea"/><stop offset="1" stop-color="#14aeea"/></linearGradient><linearGradient id="V" x1="240.53" x2="201" y1="143.97" y2="134.94" gradientUnits="userSpaceOnUse"><stop offset="0" stop-color="#2ee8a9"/><stop offset="1" stop-color="#14aeea"/><stop offset="1" stop-color="#14aeea"/></linearGradient><linearGradient id="W" x1="20.53" x2="-19" y1="43.97" y2="34.94" gradientUnits="userSpaceOnUse"><stop offset="0" stop-color="#2ee8a9"/><stop offset="1" stop-color="#14aeea"/><stop offset="1" stop-color="#14aeea"/></linearGradient><linearGradient id="X" x1="140.53" x2="101" y1="43.97" y2="34.94" gradientUnits="userSpaceOnUse"><stop offset="0" stop-color="#2ee8a9"/><stop offset="1" stop-color="#14aeea"/><stop offset="1" stop-color="#14aeea"/></linearGradient><linearGradient id="Y" x1="20.53" x2="-19" y1="163.97" y2="154.94" gradientUnits="userSpaceOnUse"><stop offset="0" stop-color="#2ee8a9"/><stop offset="1" stop-color="#14aeea"/><stop offset="1" stop-color="#14aeea"/></linearGradient><linearGradient id="Z" x1="140.53" x2="101" y1="163.97" y2="154.94" gradientUnits="userSpaceOnUse"><stop offset="0" stop-color="#2ee8a9"/><stop offset="1" stop-color="#14aeea"/><stop offset="1" stop-color="#14aeea"/></linearGradient><linearGradient id="aa" x1="40.53" x2="1" y1="43.97" y2="34.94" gradientUnits="userSpaceOnUse"><stop offset="0" stop-color="#2ee8a9"/><stop offset="1" stop-color="#14aeea"/><stop offset="1" stop-color="#14aeea"/></linearGradient><linearGradient id="ab" x1="160.53" x2="121" y1="43.97" y2="34.94" gradientUnits="userSpaceOnUse"><stop offset="0" stop-color="#2ee8a9"/><stop offset="1" stop-color="#14aeea"/><stop offset="1" stop-color="#14aeea"/></linearGradient><linearGradient id="ac" x1="40.53" x2="1" y1="163.97" y2="154.94" gradientUnits="userSpaceOnUse"><stop offset="0" stop-color="#2ee8a9"/><stop offset="1" stop-color="#14aeea"/><stop offset="1" stop-color="#14aeea"/></linearGradient><linearGradient id="ad" x1="160.53" x2="121" y1="163.97" y2="154.94" gradientUnits="userSpaceOnUse"><stop offset="0" stop-color="#2ee8a9"/><stop offset="1" stop-color="#14aeea"/><stop offset="1" stop-color="#14aeea"/></linearGradient><linearGradient id="ae" x1="60.53" x2="21" y1="43.97" y2="34.94" gradientUnits="userSpaceOnUse"><stop offset="0" stop-color="#2ee8a9"/><stop offset="1" stop-color="#14aeea"/><stop offset="1" stop-color="#14aeea"/></linearGradient><linearGradient id="af" x1="180.53" x2="141" y1="43.97" y2="34.94" gradientUnits="userSpaceOnUse"><stop offset="0" stop-color="#2ee8a9"/><stop offset="1" stop-color="#14aeea"/><stop offset="1" stop-color="#14aeea"/></linearGradient><linearGradient id="ag" x1="60.53" x2="21" y1="163.97" y2="154.94" gradientUnits="userSpaceOnUse"><stop offset="0" stop-color="#2ee8a9"/><stop offset="1" stop-color="#14aeea"/><stop offset="1" stop-color="#14aeea"/></linearGradient><linearGradient id="ah" x1="180.53" x2="141" y1="163.97" y2="154.94" gradientUnits="userSpaceOnUse"><stop offset="0" stop-color="#2ee8a9"/><stop offset="1" stop-color="#14aeea"/><stop offset="1" stop-color="#14aeea"/></linearGradient><linearGradient id="ai" x1="80.53" x2="41" y1="43.97" y2="34.94" gradientUnits="userSpaceOnUse"><stop offset="0" stop-color="#2ee8a9"/><stop offset="1" stop-color="#14aeea"/><stop offset="1" stop-color="#14aeea"/></linearGradient><linearGradient id="aj" x1="200.53" x2="161" y1="43.97" y2="34.94" gradientUnits="userSpaceOnUse"><stop offset="0" stop-color="#2ee8a9"/><stop offset="1" stop-color="#14aeea"/><stop offset="1" stop-color="#14aeea"/></linearGradient><linearGradient id="ak" x1="80.53" x2="41" y1="163.97" y2="154.94" gradientUnits="userSpaceOnUse"><stop offset="0" stop-color="#2ee8a9"/><stop offset="1" stop-color="#14aeea"/><stop offset="1" stop-color="#14aeea"/></linearGradient><linearGradient id="al" x1="200.53" x2="161" y1="163.97" y2="154.94" gradientUnits="userSpaceOnUse"><stop offset="0" stop-color="#2ee8a9"/><stop offset="1" stop-color="#14aeea"/><stop offset="1" stop-color="#14aeea"/></linearGradient><linearGradient id="am" x1="100.53" x2="61" y1="43.97" y2="34.94" gradientUnits="userSpaceOnUse"><stop offset="0" stop-color="#2ee8a9"/><stop offset="1" stop-color="#14aeea"/><stop offset="1" stop-color="#14aeea"/></linearGradient><linearGradient id="an" x1="220.53" x2="181" y1="43.97" y2="34.94" gradientUnits="userSpaceOnUse"><stop offset="0" stop-color="#2ee8a9"/><stop offset="1" stop-color="#14aeea"/><stop offset="1" stop-color="#14aeea"/></linearGradient><linearGradient id="ao" x1="100.53" x2="61" y1="163.97" y2="154.94" gradientUnits="userSpaceOnUse"><stop offset="0" stop-color="#2ee8a9"/><stop offset="1" stop-color="#14aeea"/><stop offset="1" stop-color="#14aeea"/></linearGradient><linearGradient id="ap" x1="220.53" x2="181" y1="163.97" y2="154.94" gradientUnits="userSpaceOnUse"><stop offset="0" stop-color="#2ee8a9"/><stop offset="1" stop-color="#14aeea"/><stop offset="1" stop-color="#14aeea"/></linearGradient><linearGradient id="aq" x1="120.53" x2="81" y1="43.97" y2="34.94" gradientUnits="userSpaceOnUse"><stop offset="0" stop-color="#2ee8a9"/><stop offset="1" stop-color="#14aeea"/><stop offset="1" stop-color="#14aeea"/></linearGradient><linearGradient id="ar" x1="240.53" x2="201" y1="43.97" y2="34.94" gradientUnits="userSpaceOnUse"><stop offset="0" stop-color="#2ee8a9"/><stop offset="1" stop-color="#14aeea"/><stop offset="1" stop-color="#14aeea"/></linearGradient><linearGradient id="as" x1="120.53" x2="81" y1="163.97" y2="154.94" gradientUnits="userSpaceOnUse"><stop offset="0" stop-color="#2ee8a9"/><stop offset="1" stop-color="#14aeea"/><stop offset="1" stop-color="#14aeea"/></linearGradient><linearGradient id="at" x1="240.53" x2="201" y1="163.97" y2="154.94" gradientUnits="userSpaceOnUse"><stop offset="0" stop-color="#2ee8a9"/><stop offset="1" stop-color="#14aeea"/><stop offset="1" stop-color="#14aeea"/></linearGradient><linearGradient id="a" x1="20.53" x2="-19" y1="3.97" y2="-5.06" gradientUnits="userSpaceOnUse"><stop offset="0" stop-color="#2ee8a9"/><stop offset="1" stop-color="#14aeea"/><stop offset="1" stop-color="#14aeea"/></linearGradient><linearGradient id="av" x1="140.53" x2="101" y1="63.97" y2="54.94" gradientUnits="userSpaceOnUse"><stop offset="0" stop-color="#2ee8a9"/><stop offset="1" stop-color="#14aeea"/><stop offset="1" stop-color="#14aeea"/></linearGradient><linearGradient id="aw" x1="20.53" x2="-19" y1="183.97" y2="174.94" gradientUnits="userSpaceOnUse"><stop offset="0" stop-color="#2ee8a9"/><stop offset="1" stop-color="#14aeea"/><stop offset="1" stop-color="#14aeea"/></linearGradient><linearGradient id="ax" x1="140.53" x2="101" y1="183.97" y2="174.94" gradientUnits="userSpaceOnUse"><stop offset="0" stop-color="#2ee8a9"/><stop offset="1" stop-color="#14aeea"/><stop offset="1" stop-color="#14aeea"/></linearGradient><linearGradient id="ay" x1="40.53" x2="1" y1="63.97" y2="54.94" gradientUnits="userSpaceOnUse"><stop offset="0" stop-color="#2ee8a9"/><stop offset="1" stop-color="#14aeea"/><stop offset="1" stop-color="#14aeea"/></linearGradient><linearGradient id="az" x1="160.53" x2="121" y1="63.97" y2="54.94" gradientUnits="userSpaceOnUse"><stop offset="0" stop-color="#2ee8a9"/><stop offset="1" stop-color="#14aeea"/><stop offset="1" stop-color="#14aeea"/></linearGradient><linearGradient id="aA" x1="40.53" x2="1" y1="183.97" y2="174.94" gradientUnits="userSpaceOnUse"><stop offset="0" stop-color="#2ee8a9"/><stop offset="1" stop-color="#14aeea"/><stop offset="1" stop-color="#14aeea"/></linearGradient><linearGradient id="aB" x1="160.53" x2="121" y1="183.97" y2="174.94" gradientUnits="userSpaceOnUse"><stop offset="0" stop-color="#2ee8a9"/><stop offset="1" stop-color="#14aeea"/><stop offset="1" stop-color="#14aeea"/></linearGradient><linearGradient id="aC" x1="60.53" x2="21" y1="63.97" y2="54.94" gradientUnits="userSpaceOnUse"><stop offset="0" stop-color="#2ee8a9"/><stop offset="1" stop-color="#14aeea"/><stop offset="1" stop-color="#14aeea"/></linearGradient><linearGradient id="aD" x1="180.53" x2="141" y1="63.97" y2="54.94" gradientUnits="userSpaceOnUse"><stop offset="0" stop-color="#2ee8a9"/><stop offset="1" stop-color="#14aeea"/><stop offset="1" stop-color="#14aeea"/></linearGradient><linearGradient id="aE" x1="60.53" x2="21" y1="183.97" y2="174.94" gradientUnits="userSpaceOnUse"><stop offset="0" stop-color="#2ee8a9"/><stop offset="1" stop-color="#14aeea"/><stop offset="1" stop-color="#14aeea"/></linearGradient><linearGradient id="aF" x1="180.53" x2="141" y1="183.97" y2="174.94" gradientUnits="userSpaceOnUse"><stop offset="0" stop-color="#2ee8a9"/><stop offset="1" stop-color="#14aeea"/><stop offset="1" stop-color="#14aeea"/></linearGradient><linearGradient id="aG" x1="80.53" x2="41" y1="63.97" y2="54.94" gradientUnits="userSpaceOnUse"><stop offset="0" stop-color="#2ee8a9"/><stop offset="1" stop-color="#14aeea"/><stop offset="1" stop-color="#14aeea"/></linearGradient><linearGradient id="aH" x1="200.53" x2="161" y1="63.97" y2="54.94" gradientUnits="userSpaceOnUse"><stop offset="0" stop-color="#2ee8a9"/><stop offset="1" stop-color="#14aeea"/><stop offset="1" stop-color="#14aeea"/></linearGradient><linearGradient id="aI" x1="80.53" x2="41" y1="183.97" y2="174.94" gradientUnits="userSpaceOnUse"><stop offset="0" stop-color="#2ee8a9"/><stop offset="1" stop-color="#14aeea"/><stop offset="1" stop-color="#14aeea"/></linearGradient><linearGradient id="aJ" x1="200.53" x2="161" y1="183.97" y2="174.94" gradientUnits="userSpaceOnUse"><stop offset="0" stop-color="#2ee8a9"/><stop offset="1" stop-color="#14aeea"/><stop offset="1" stop-color="#14aeea"/></linearGradient><linearGradient id="aK" x1="100.53" x2="61" y1="63.97" y2="54.94" gradientUnits="userSpaceOnUse"><stop offset="0" stop-color="#2ee8a9"/><stop offset="1" stop-color="#14aeea"/><stop offset="1" stop-color="#14aeea"/></linearGradient><linearGradient id="aL" x1="220.53" x2="181" y1="63.97" y2="54.94" gradientUnits="userSpaceOnUse"><stop offset="0" stop-color="#2ee8a9"/><stop offset="1" stop-color="#14aeea"/><stop offset="1" stop-color="#14aeea"/></linearGradient><linearGradient id="aM" x1="100.53" x2="61" y1="183.97" y2="174.94" gradientUnits="userSpaceOnUse"><stop offset="0" stop-color="#2ee8a9"/><stop offset="1" stop-color="#14aeea"/><stop offset="1" stop-color="#14aeea"/></linearGradient><linearGradient id="aN" x1="220.53" x2="181" y1="183.97" y2="174.94" gradientUnits="userSpaceOnUse"><stop offset="0" stop-color="#2ee8a9"/><stop offset="1" stop-color="#14aeea"/><stop offset="1" stop-color="#14aeea"/></linearGradient><linearGradient id="aO" x1="120.53" x2="81" y1="63.97" y2="54.94" gradientUnits="userSpaceOnUse"><stop offset="0" stop-color="#2ee8a9"/><stop offset="1" stop-color="#14aeea"/><stop offset="1" stop-color="#14aeea"/></linearGradient><linearGradient id="aP" x1="240.53" x2="201" y1="63.97" y2="54.94" gradientUnits="userSpaceOnUse"><stop offset="0" stop-color="#2ee8a9"/><stop offset="1" stop-color="#14aeea"/><stop offset="1" stop-color="#14aeea"/></linearGradient><linearGradient id="aQ" x1="120.53" x2="81" y1="183.97" y2="174.94" gradientUnits="userSpaceOnUse"><stop offset="0" stop-color="#2ee8a9"/><stop offset="1" stop-color="#14aeea"/><stop offset="1" stop-color="#14aeea"/></linearGradient><linearGradient id="aR" x1="240.53" x2="201" y1="183.97" y2="174.94" gradientUnits="userSpaceOnUse"><stop offset="0" stop-color="#2ee8a9"/><stop offset="1" stop-color="#14aeea"/><stop offset="1" stop-color="#14aeea"/></linearGradient><linearGradient id="aS" x1="20.53" x2="-19" y1="83.97" y2="74.94" gradientUnits="userSpaceOnUse"><stop offset="0" stop-color="#2ee8a9"/><stop offset="1" stop-color="#14aeea"/><stop offset="1" stop-color="#14aeea"/></linearGradient><linearGradient id="aT" x1="140.53" x2="101" y1="83.97" y2="74.94" gradientUnits="userSpaceOnUse"><stop offset="0" stop-color="#2ee8a9"/><stop offset="1" stop-color="#14aeea"/><stop offset="1" stop-color="#14aeea"/></linearGradient><linearGradient id="aU" x1="20.53" x2="-19" y1="203.97" y2="194.94" gradientUnits="userSpaceOnUse"><stop offset="0" stop-color="#2ee8a9"/><stop offset="1" stop-color="#14aeea"/><stop offset="1" stop-color="#14aeea"/></linearGradient><linearGradient id="aV" x1="140.53" x2="101" y1="203.97" y2="194.94" gradientUnits="userSpaceOnUse"><stop offset="0" stop-color="#2ee8a9"/><stop offset="1" stop-color="#14aeea"/><stop offset="1" stop-color="#14aeea"/></linearGradient><linearGradient id="aW" x1="40.53" x2="1" y1="83.97" y2="74.94" gradientUnits="userSpaceOnUse"><stop offset="0" stop-color="#2ee8a9"/><stop offset="1" stop-color="#14aeea"/><stop offset="1" stop-color="#14aeea"/></linearGradient><linearGradient id="aX" x1="160.53" x2="121" y1="83.97" y2="74.94" gradientUnits="userSpaceOnUse"><stop offset="0" stop-color="#2ee8a9"/><stop offset="1" stop-color="#14aeea"/><stop offset="1" stop-color="#14aeea"/></linearGradient><linearGradient id="aY" x1="40.53" x2="1" y1="203.97" y2="194.94" gradientUnits="userSpaceOnUse"><stop offset="0" stop-color="#2ee8a9"/><stop offset="1" stop-color="#14aeea"/><stop offset="1" stop-color="#14aeea"/></linearGradient><linearGradient id="aZ" x1="160.53" x2="121" y1="203.97" y2="194.94" gradientUnits="userSpaceOnUse"><stop offset="0" stop-color="#2ee8a9"/><stop offset="1" stop-color="#14aeea"/><stop offset="1" stop-color="#14aeea"/></linearGradient><linearGradient id="ba" x1="60.53" x2="21" y1="83.97" y2="74.94" gradientUnits="userSpaceOnUse"><stop offset="0" stop-color="#2ee8a9"/><stop offset="1" stop-color="#14aeea"/><stop offset="1" stop-color="#14aeea"/></linearGradient><linearGradient id="bb" x1="180.53" x2="141" y1="83.97" y2="74.94" gradientUnits="userSpaceOnUse"><stop offset="0" stop-color="#2ee8a9"/><stop offset="1" stop-color="#14aeea"/><stop offset="1" stop-color="#14aeea"/></linearGradient><linearGradient id="bc" x1="60.53" x2="21" y1="203.97" y2="194.94" gradientUnits="userSpaceOnUse"><stop offset="0" stop-color="#2ee8a9"/><stop offset="1" stop-color="#14aeea"/><stop offset="1" stop-color="#14aeea"/></linearGradient><linearGradient id="bd" x1="180.53" x2="141" y1="203.97" y2="194.94" gradientUnits="userSpaceOnUse"><stop offset="0" stop-color="#2ee8a9"/><stop offset="1" stop-color="#14aeea"/><stop offset="1" stop-color="#14aeea"/></linearGradient><linearGradient id="be" x1="80.53" x2="41" y1="83.97" y2="74.94" gradientUnits="userSpaceOnUse"><stop offset="0" stop-color="#2ee8a9"/><stop offset="1" stop-color="#14aeea"/><stop offset="1" stop-color="#14aeea"/></linearGradient><linearGradient id="bf" x1="200.53" x2="161" y1="83.97" y2="74.94" gradientUnits="userSpaceOnUse"><stop offset="0" stop-color="#2ee8a9"/><stop offset="1" stop-color="#14aeea"/><stop offset="1" stop-color="#14aeea"/></linearGradient><linearGradient id="bg" x1="80.53" x2="41" y1="203.97" y2="194.94" gradientUnits="userSpaceOnUse"><stop offset="0" stop-color="#2ee8a9"/><stop offset="1" stop-color="#14aeea"/><stop offset="1" stop-color="#14aeea"/></linearGradient><linearGradient id="bh" x1="200.53" x2="161" y1="203.97" y2="194.94" gradientUnits="userSpaceOnUse"><stop offset="0" stop-color="#2ee8a9"/><stop offset="1" stop-color="#14aeea"/><stop offset="1" stop-color="#14aeea"/></linearGradient><linearGradient id="bi" x1="100.53" x2="61" y1="83.97" y2="74.94" gradientUnits="userSpaceOnUse"><stop offset="0" stop-color="#2ee8a9"/><stop offset="1" stop-color="#14aeea"/><stop offset="1" stop-color="#14aeea"/></linearGradient><linearGradient id="bj" x1="220.53" x2="181" y1="83.97" y2="74.94" gradientUnits="userSpaceOnUse"><stop offset="0" stop-color="#2ee8a9"/><stop offset="1" stop-color="#14aeea"/><stop offset="1" stop-color="#14aeea"/></linearGradient><linearGradient id="bk" x1="100.53" x2="61" y1="203.97" y2="194.94" gradientUnits="userSpaceOnUse"><stop offset="0" stop-color="#2ee8a9"/><stop offset="1" stop-color="#14aeea"/><stop offset="1" stop-color="#14aeea"/></linearGradient><linearGradient id="bl" x1="220.53" x2="181" y1="203.97" y2="194.94" gradientUnits="userSpaceOnUse"><stop offset="0" stop-color="#2ee8a9"/><stop offset="1" stop-color="#14aeea"/><stop offset="1" stop-color="#14aeea"/></linearGradient><linearGradient id="bm" x1="120.53" x2="81" y1="83.97" y2="74.94" gradientUnits="userSpaceOnUse"><stop offset="0" stop-color="#2ee8a9"/><stop offset="1" stop-color="#14aeea"/><stop offset="1" stop-color="#14aeea"/></linearGradient><linearGradient id="bn" x1="240.53" x2="201" y1="83.97" y2="74.94" gradientUnits="userSpaceOnUse"><stop offset="0" stop-color="#2ee8a9"/><stop offset="1" stop-color="#14aeea"/><stop offset="1" stop-color="#14aeea"/></linearGradient><linearGradient id="bo" x1="120.53" x2="81" y1="203.97" y2="194.94" gradientUnits="userSpaceOnUse"><stop offset="0" stop-color="#2ee8a9"/><stop offset="1" stop-color="#14aeea"/><stop offset="1" stop-color="#14aeea"/></linearGradient><linearGradient id="bp" x1="240.53" x2="201" y1="203.97" y2="194.94" gradientUnits="userSpaceOnUse"><stop offset="0" stop-color="#2ee8a9"/><stop offset="1" stop-color="#14aeea"/><stop offset="1" stop-color="#14aeea"/></linearGradient><linearGradient id="bq" x1="20.53" x2="-19" y1="103.97" y2="94.94" gradientUnits="userSpaceOnUse"><stop offset="0" stop-color="#2ee8a9"/><stop offset="1" stop-color="#14aeea"/><stop offset="1" stop-color="#14aeea"/></linearGradient><linearGradient id="br" x1="140.53" x2="101" y1="103.97" y2="94.94" gradientUnits="userSpaceOnUse"><stop offset="0" stop-color="#2ee8a9"/><stop offset="1" stop-color="#14aeea"/><stop offset="1" stop-color="#14aeea"/></linearGradient><linearGradient id="bs" x1="20.53" x2="-19" y1="223.97" y2="214.94" gradientUnits="userSpaceOnUse"><stop offset="0" stop-color="#2ee8a9"/><stop offset="1" stop-color="#14aeea"/><stop offset="1" stop-color="#14aeea"/></linearGradient><linearGradient id="bt" x1="140.53" x2="101" y1="223.97" y2="214.94" gradientUnits="userSpaceOnUse"><stop offset="0" stop-color="#2ee8a9"/><stop offset="1" stop-color="#14aeea"/><stop offset="1" stop-color="#14aeea"/></linearGradient><linearGradient id="bu" x1="40.53" x2="1" y1="103.97" y2="94.94" gradientUnits="userSpaceOnUse"><stop offset="0" stop-color="#2ee8a9"/><stop offset="1" stop-color="#14aeea"/><stop offset="1" stop-color="#14aeea"/></linearGradient><linearGradient id="bv" x1="160.53" x2="121" y1="103.97" y2="94.94" gradientUnits="userSpaceOnUse"><stop offset="0" stop-color="#2ee8a9"/><stop offset="1" stop-color="#14aeea"/><stop offset="1" stop-color="#14aeea"/></linearGradient><linearGradient id="bw" x1="40.53" x2="1" y1="223.97" y2="214.94" gradientUnits="userSpaceOnUse"><stop offset="0" stop-color="#2ee8a9"/><stop offset="1" stop-color="#14aeea"/><stop offset="1" stop-color="#14aeea"/></linearGradient><linearGradient id="bx" x1="160.53" x2="121" y1="223.97" y2="214.94" gradientUnits="userSpaceOnUse"><stop offset="0" stop-color="#2ee8a9"/><stop offset="1" stop-color="#14aeea"/><stop offset="1" stop-color="#14aeea"/></linearGradient><linearGradient id="by" x1="60.53" x2="21" y1="103.97" y2="94.94" gradientUnits="userSpaceOnUse"><stop offset="0" stop-color="#2ee8a9"/><stop offset="1" stop-color="#14aeea"/><stop offset="1" stop-color="#14aeea"/></linearGradient><linearGradient id="bz" x1="180.53" x2="141" y1="103.97" y2="94.94" gradientUnits="userSpaceOnUse"><stop offset="0" stop-color="#2ee8a9"/><stop offset="1" stop-color="#14aeea"/><stop offset="1" stop-color="#14aeea"/></linearGradient><linearGradient id="bA" x1="60.53" x2="21" y1="223.97" y2="214.94" gradientUnits="userSpaceOnUse"><stop offset="0" stop-color="#2ee8a9"/><stop offset="1" stop-color="#14aeea"/><stop offset="1" stop-color="#14aeea"/></linearGradient><linearGradient id="bB" x1="180.53" x2="141" y1="223.97" y2="214.94" gradientUnits="userSpaceOnUse"><stop offset="0" stop-color="#2ee8a9"/><stop offset="1" stop-color="#14aeea"/><stop offset="1" stop-color="#14aeea"/></linearGradient><linearGradient id="bC" x1="80.53" x2="41" y1="103.97" y2="94.94" gradientUnits="userSpaceOnUse"><stop offset="0" stop-color="#2ee8a9"/><stop offset="1" stop-color="#14aeea"/><stop offset="1" stop-color="#14aeea"/></linearGradient><linearGradient id="bD" x1="200.53" x2="161" y1="103.97" y2="94.94" gradientUnits="userSpaceOnUse"><stop offset="0" stop-color="#2ee8a9"/><stop offset="1" stop-color="#14aeea"/><stop offset="1" stop-color="#14aeea"/></linearGradient><linearGradient id="bE" x1="80.53" x2="41" y1="223.97" y2="214.94" gradientUnits="userSpaceOnUse"><stop offset="0" stop-color="#2ee8a9"/><stop offset="1" stop-color="#14aeea"/><stop offset="1" stop-color="#14aeea"/></linearGradient><linearGradient id="bF" x1="200.53" x2="161" y1="223.97" y2="214.94" gradientUnits="userSpaceOnUse"><stop offset="0" stop-color="#2ee8a9"/><stop offset="1" stop-color="#14aeea"/><stop offset="1" stop-color="#14aeea"/></linearGradient><linearGradient id="bG" x1="100.53" x2="61" y1="103.97" y2="94.94" gradientUnits="userSpaceOnUse"><stop offset="0" stop-color="#2ee8a9"/><stop offset="1" stop-color="#14aeea"/><stop offset="1" stop-color="#14aeea"/></linearGradient><linearGradient id="bH" x1="220.53" x2="181" y1="103.97" y2="94.94" gradientUnits="userSpaceOnUse"><stop offset="0" stop-color="#2ee8a9"/><stop offset="1" stop-color="#14aeea"/><stop offset="1" stop-color="#14aeea"/></linearGradient><linearGradient id="bI" x1="100.53" x2="61" y1="223.97" y2="214.94" gradientUnits="userSpaceOnUse"><stop offset="0" stop-color="#2ee8a9"/><stop offset="1" stop-color="#14aeea"/><stop offset="1" stop-color="#14aeea"/></linearGradient><linearGradient id="bJ" x1="220.53" x2="181" y1="223.97" y2="214.94" gradientUnits="userSpaceOnUse"><stop offset="0" stop-color="#2ee8a9"/><stop offset="1" stop-color="#14aeea"/><stop offset="1" stop-color="#14aeea"/></linearGradient><linearGradient id="bK" x1="120.53" x2="81" y1="103.97" y2="94.94" gradientUnits="userSpaceOnUse"><stop offset="0" stop-color="#2ee8a9"/><stop offset="1" stop-color="#14aeea"/><stop offset="1" stop-color="#14aeea"/></linearGradient><linearGradient id="bL" x1="240.53" x2="201" y1="103.97" y2="94.94" gradientUnits="userSpaceOnUse"><stop offset="0" stop-color="#2ee8a9"/><stop offset="1" stop-color="#14aeea"/><stop offset="1" stop-color="#14aeea"/></linearGradient><linearGradient id="bM" x1="120.53" x2="81" y1="223.97" y2="214.94" gradientUnits="userSpaceOnUse"><stop offset="0" stop-color="#2ee8a9"/><stop offset="1" stop-color="#14aeea"/><stop offset="1" stop-color="#14aeea"/></linearGradient><linearGradient id="bN" x1="240.53" x2="201" y1="223.97" y2="214.94" gradientUnits="userSpaceOnUse"><stop offset="0" stop-color="#2ee8a9"/><stop offset="1" stop-color="#14aeea"/><stop offset="1" stop-color="#14aeea"/></linearGradient></defs><path fill="url(#a)" d="M5 10A5 5 0 105 0a5 5 0 000 10z"/><path fill="url(#b)" d="M125 10a5 5 0 100-10 5 5 0 000 10z"/><path fill="url(#c)" d="M5 130a5 5 0 100-10 5 5 0 000 10z"/><path fill="url(#d)" d="M125 130a5 5 0 100-10 5 5 0 000 10z"/><path fill="url(#e)" d="M25 10a5 5 0 100-10 5 5 0 000 10z"/><path fill="url(#f)" d="M145 10a5 5 0 100-10 5 5 0 000 10z"/><path fill="url(#g)" d="M25 130a5 5 0 100-10 5 5 0 000 10z"/><path fill="url(#h)" d="M145 130a5 5 0 100-10 5 5 0 000 10z"/><path fill="url(#i)" d="M45 10a5 5 0 100-10 5 5 0 000 10z"/><path fill="url(#j)" d="M165 10a5 5 0 100-10 5 5 0 000 10z"/><path fill="url(#k)" d="M45 130a5 5 0 100-10 5 5 0 000 10z"/><path fill="url(#l)" d="M165 130a5 5 0 100-10 5 5 0 000 10z"/><path fill="url(#m)" d="M65 10a5 5 0 100-10 5 5 0 000 10z"/><path fill="url(#n)" d="M185 10a5 5 0 100-10 5 5 0 000 10z"/><path fill="url(#o)" d="M65 130a5 5 0 100-10 5 5 0 000 10z"/><path fill="url(#p)" d="M185 130a5 5 0 100-10 5 5 0 000 10z"/><path fill="url(#q)" d="M85 10a5 5 0 100-10 5 5 0 000 10z"/><path fill="url(#r)" d="M205 10a5 5 0 100-10 5 5 0 000 10z"/><path fill="url(#s)" d="M85 130a5 5 0 100-10 5 5 0 000 10z"/><path fill="url(#t)" d="M205 130a5 5 0 100-10 5 5 0 000 10z"/><path fill="url(#u)" d="M105 10a5 5 0 100-10 5 5 0 000 10z"/><path fill="url(#v)" d="M225 10a5 5 0 100-10 5 5 0 000 10z"/><path fill="url(#w)" d="M105 130a5 5 0 100-10 5 5 0 000 10z"/><path fill="url(#x)" d="M225 130a5 5 0 100-10 5 5 0 000 10z"/><path fill="url(#y)" d="M5 30a5 5 0 100-10 5 5 0 000 10z"/><path fill="url(#z)" d="M125 30a5 5 0 100-10 5 5 0 000 10z"/><path fill="url(#A)" d="M5 150a5 5 0 100-10 5 5 0 000 10z"/><path fill="url(#B)" d="M125 150a5 5 0 100-10 5 5 0 000 10z"/><path fill="url(#C)" d="M25 30a5 5 0 100-10 5 5 0 000 10z"/><path fill="url(#D)" d="M145 30a5 5 0 100-10 5 5 0 000 10z"/><path fill="url(#E)" d="M25 150a5 5 0 100-10 5 5 0 000 10z"/><path fill="url(#F)" d="M145 150a5 5 0 100-10 5 5 0 000 10z"/><path fill="url(#G)" d="M45 30a5 5 0 100-10 5 5 0 000 10z"/><path fill="url(#H)" d="M165 30a5 5 0 100-10 5 5 0 000 10z"/><path fill="url(#I)" d="M45 150a5 5 0 100-10 5 5 0 000 10z"/><path fill="url(#J)" d="M165 150a5 5 0 100-10 5 5 0 000 10z"/><path fill="url(#K)" d="M65 30a5 5 0 100-10 5 5 0 000 10z"/><path fill="url(#L)" d="M185 30a5 5 0 100-10 5 5 0 000 10z"/><path fill="url(#M)" d="M65 150a5 5 0 100-10 5 5 0 000 10z"/><path fill="url(#N)" d="M185 150a5 5 0 100-10 5 5 0 000 10z"/><path fill="url(#O)" d="M85 30a5 5 0 100-10 5 5 0 000 10z"/><path fill="url(#P)" d="M205 30a5 5 0 100-10 5 5 0 000 10z"/><path fill="url(#Q)" d="M85 150a5 5 0 100-10 5 5 0 000 10z"/><path fill="url(#R)" d="M205 150a5 5 0 100-10 5 5 0 000 10z"/><path fill="url(#S)" d="M105 30a5 5 0 100-10 5 5 0 000 10z"/><path fill="url(#T)" d="M225 30a5 5 0 100-10 5 5 0 000 10z"/><path fill="url(#U)" d="M105 150a5 5 0 100-10 5 5 0 000 10z"/><path fill="url(#V)" d="M225 150a5 5 0 100-10 5 5 0 000 10z"/><path fill="url(#W)" d="M5 50a5 5 0 100-10 5 5 0 000 10z"/><path fill="url(#X)" d="M125 50a5 5 0 100-10 5 5 0 000 10z"/><path fill="url(#Y)" d="M5 170a5 5 0 100-10 5 5 0 000 10z"/><path fill="url(#Z)" d="M125 170a5 5 0 100-10 5 5 0 000 10z"/><path fill="url(#aa)" d="M25 50a5 5 0 100-10 5 5 0 000 10z"/><path fill="url(#ab)" d="M145 50a5 5 0 100-10 5 5 0 000 10z"/><path fill="url(#ac)" d="M25 170a5 5 0 100-10 5 5 0 000 10z"/><path fill="url(#ad)" d="M145 170a5 5 0 100-10 5 5 0 000 10z"/><path fill="url(#ae)" d="M45 50a5 5 0 100-10 5 5 0 000 10z"/><path fill="url(#af)" d="M165 50a5 5 0 100-10 5 5 0 000 10z"/><path fill="url(#ag)" d="M45 170a5 5 0 100-10 5 5 0 000 10z"/><path fill="url(#ah)" d="M165 170a5 5 0 100-10 5 5 0 000 10z"/><path fill="url(#ai)" d="M65 50a5 5 0 100-10 5 5 0 000 10z"/><path fill="url(#aj)" d="M185 50a5 5 0 100-10 5 5 0 000 10z"/><path fill="url(#ak)" d="M65 170a5 5 0 100-10 5 5 0 000 10z"/><path fill="url(#al)" d="M185 170a5 5 0 100-10 5 5 0 000 10z"/><path fill="url(#am)" d="M85 50a5 5 0 100-10 5 5 0 000 10z"/><path fill="url(#an)" d="M205 50a5 5 0 100-10 5 5 0 000 10z"/><path fill="url(#ao)" d="M85 170a5 5 0 100-10 5 5 0 000 10z"/><path fill="url(#ap)" d="M205 170a5 5 0 100-10 5 5 0 000 10z"/><path fill="url(#aq)" d="M105 50a5 5 0 100-10 5 5 0 000 10z"/><path fill="url(#ar)" d="M225 50a5 5 0 100-10 5 5 0 000 10z"/><path fill="url(#as)" d="M105 170a5 5 0 100-10 5 5 0 000 10z"/><path fill="url(#at)" d="M225 170a5 5 0 100-10 5 5 0 000 10z"/><path fill="url(#au)" d="M5 70a5 5 0 100-10 5 5 0 000 10z"/><path fill="url(#av)" d="M125 70a5 5 0 100-10 5 5 0 000 10z"/><path fill="url(#aw)" d="M5 190a5 5 0 100-10 5 5 0 000 10z"/><path fill="url(#ax)" d="M125 190a5 5 0 100-10 5 5 0 000 10z"/><path fill="url(#ay)" d="M25 70a5 5 0 100-10 5 5 0 000 10z"/><path fill="url(#az)" d="M145 70a5 5 0 100-10 5 5 0 000 10z"/><path fill="url(#aA)" d="M25 190a5 5 0 100-10 5 5 0 000 10z"/><path fill="url(#aB)" d="M145 190a5 5 0 100-10 5 5 0 000 10z"/><path fill="url(#aC)" d="M45 70a5 5 0 100-10 5 5 0 000 10z"/><path fill="url(#aD)" d="M165 70a5 5 0 100-10 5 5 0 000 10z"/><path fill="url(#aE)" d="M45 190a5 5 0 100-10 5 5 0 000 10z"/><path fill="url(#aF)" d="M165 190a5 5 0 100-10 5 5 0 000 10z"/><path fill="url(#aG)" d="M65 70a5 5 0 100-10 5 5 0 000 10z"/><path fill="url(#aH)" d="M185 70a5 5 0 100-10 5 5 0 000 10z"/><path fill="url(#aI)" d="M65 190a5 5 0 100-10 5 5 0 000 10z"/><path fill="url(#aJ)" d="M185 190a5 5 0 100-10 5 5 0 000 10z"/><path fill="url(#aK)" d="M85 70a5 5 0 100-10 5 5 0 000 10z"/><path fill="url(#aL)" d="M205 70a5 5 0 100-10 5 5 0 000 10z"/><path fill="url(#aM)" d="M85 190a5 5 0 100-10 5 5 0 000 10z"/><path fill="url(#aN)" d="M205 190a5 5 0 100-10 5 5 0 000 10z"/><path fill="url(#aO)" d="M105 70a5 5 0 100-10 5 5 0 000 10z"/><path fill="url(#aP)" d="M225 70a5 5 0 100-10 5 5 0 000 10z"/><path fill="url(#aQ)" d="M105 190a5 5 0 100-10 5 5 0 000 10z"/><path fill="url(#aR)" d="M225 190a5 5 0 100-10 5 5 0 000 10z"/><path fill="url(#aS)" d="M5 90a5 5 0 100-10 5 5 0 000 10z"/><path fill="url(#aT)" d="M125 90a5 5 0 100-10 5 5 0 000 10z"/><path fill="url(#aU)" d="M5 210a5 5 0 100-10 5 5 0 000 10z"/><path fill="url(#aV)" d="M125 210a5 5 0 100-10 5 5 0 000 10z"/><path fill="url(#aW)" d="M25 90a5 5 0 100-10 5 5 0 000 10z"/><path fill="url(#aX)" d="M145 90a5 5 0 100-10 5 5 0 000 10z"/><path fill="url(#aY)" d="M25 210a5 5 0 100-10 5 5 0 000 10z"/><path fill="url(#aZ)" d="M145 210a5 5 0 100-10 5 5 0 000 10z"/><path fill="url(#ba)" d="M45 90a5 5 0 100-10 5 5 0 000 10z"/><path fill="url(#bb)" d="M165 90a5 5 0 100-10 5 5 0 000 10z"/><path fill="url(#bc)" d="M45 210a5 5 0 100-10 5 5 0 000 10z"/><path fill="url(#bd)" d="M165 210a5 5 0 100-10 5 5 0 000 10z"/><path fill="url(#be)" d="M65 90a5 5 0 100-10 5 5 0 000 10z"/><path fill="url(#bf)" d="M185 90a5 5 0 100-10 5 5 0 000 10z"/><path fill="url(#bg)" d="M65 210a5 5 0 100-10 5 5 0 000 10z"/><path fill="url(#bh)" d="M185 210a5 5 0 100-10 5 5 0 000 10z"/><path fill="url(#bi)" d="M85 90a5 5 0 100-10 5 5 0 000 10z"/><path fill="url(#bj)" d="M205 90a5 5 0 100-10 5 5 0 000 10z"/><path fill="url(#bk)" d="M85 210a5 5 0 100-10 5 5 0 000 10z"/><path fill="url(#bl)" d="M205 210a5 5 0 100-10 5 5 0 000 10z"/><path fill="url(#bm)" d="M105 90a5 5 0 100-10 5 5 0 000 10z"/><path fill="url(#bn)" d="M225 90a5 5 0 100-10 5 5 0 000 10z"/><path fill="url(#bo)" d="M105 210a5 5 0 100-10 5 5 0 000 10z"/><path fill="url(#bp)" d="M225 210a5 5 0 100-10 5 5 0 000 10z"/><path fill="url(#bq)" d="M5 110a5 5 0 100-10 5 5 0 000 10z"/><path fill="url(#br)" d="M125 110a5 5 0 100-10 5 5 0 000 10z"/><path fill="url(#bs)" d="M5 230a5 5 0 100-10 5 5 0 000 10z"/><path fill="url(#bt)" d="M125 230a5 5 0 100-10 5 5 0 000 10z"/><path fill="url(#bu)" d="M25 110a5 5 0 100-10 5 5 0 000 10z"/><path fill="url(#bv)" d="M145 110a5 5 0 100-10 5 5 0 000 10z"/><path fill="url(#bw)" d="M25 230a5 5 0 100-10 5 5 0 000 10z"/><path fill="url(#bx)" d="M145 230a5 5 0 100-10 5 5 0 000 10z"/><path fill="url(#by)" d="M45 110a5 5 0 100-10 5 5 0 000 10z"/><path fill="url(#bz)" d="M165 110a5 5 0 100-10 5 5 0 000 10z"/><path fill="url(#bA)" d="M45 230a5 5 0 100-10 5 5 0 000 10z"/><path fill="url(#bB)" d="M165 230a5 5 0 100-10 5 5 0 000 10z"/><path fill="url(#bC)" d="M65 110a5 5 0 100-10 5 5 0 000 10z"/><path fill="url(#bD)" d="M185 110a5 5 0 100-10 5 5 0 000 10z"/><path fill="url(#bE)" d="M65 230a5 5 0 100-10 5 5 0 000 10z"/><path fill="url(#bF)" d="M185 230a5 5 0 100-10 5 5 0 000 10z"/><path fill="url(#bG)" d="M85 110a5 5 0 100-10 5 5 0 000 10z"/><path fill="url(#bH)" d="M205 110a5 5 0 100-10 5 5 0 000 10z"/><path fill="url(#bI)" d="M85 230a5 5 0 100-10 5 5 0 000 10z"/><path fill="url(#bJ)" d="M205 230a5 5 0 100-10 5 5 0 000 10z"/><path fill="url(#bK)" d="M105 110a5 5 0 100-10 5 5 0 000 10z"/><path fill="url(#bL)" d="M225 110a5 5 0 100-10 5 5 0 000 10z"/><path fill="url(#bM)" d="M105 230a5 5 0 100-10 5 5 0 000 10z"/><path fill="url(#bN)" d="M225 230a5 5 0 100-10 5 5 0 000 10z"/></svg>