<svg xmlns="http://www.w3.org/2000/svg" width="24" height="20" viewBox="0 0 24 20"><path fill="#3b43f2" d="M23.054 13.264a3.31 3.31 0 01-.704.643v2.743h.343a1.31 1.31 0 001.31-1.298V12.04zm-5.789-5.857h3.533c.104 0 .214-.013.324-.037V3.868a1.3 1.3 0 00-1.304-1.298H1.31A1.31 1.31 0 000 3.868v14.039c.006.722.588 1.31 1.31 1.316h18.508a1.316 1.316 0 001.304-1.316l-.006-3.557a5.304 5.304 0 01-.324.03h-3.527a3.486 3.486 0 110-6.973z"/><path fill="#3b43f2" d="M22.692 0H4.184A1.316 1.316 0 002.88 1.316v.03h16.94a2.524 2.524 0 012.53 2.523v2.56l1.652-2.131V1.316A1.325 1.325 0 0022.692 0zM18.64 11.51h-1.469a.614.614 0 01-.612-.612c0-.337.275-.612.612-.612h1.47c.336 0 .612.275.612.612a.614.614 0 01-.612.612zm5.358-5.21l-.95 1.224a2.847 2.847 0 01-2.252 1.109h-3.527a2.267 2.267 0 00-2.259 2.265c0 1.249 1.01 2.26 2.26 2.265h3.532a1.65 1.65 0 001.286-.636l1.916-2.486z"/></svg>