<svg width="376" height="478" viewBox="0 0 376 478" xmlns="http://www.w3.org/2000/svg"><path d="M358.6 170.667h-17.067V153.6c0-84.831-68.769-153.6-153.6-153.6-84.831 0-153.6 68.769-153.6 153.6v17.067H17.267C7.841 170.667.2 178.308.2 187.734V460.8c0 9.426 7.641 17.067 17.067 17.067H358.6c9.426 0 17.067-7.641 17.067-17.067V187.733c0-9.425-7.641-17.066-17.067-17.066zM236.205 324.055A51.198 51.198 0 01205 355.26v37.274c0 9.426-7.641 17.067-17.067 17.067s-17.067-7.641-17.067-17.067V355.26c-26.66-9.426-40.631-38.679-31.205-65.339 9.426-26.66 38.679-40.631 65.339-31.205 26.66 9.426 40.631 38.679 31.205 65.339zM307.4 170.667H68.467V153.6c0-65.98 53.487-119.467 119.467-119.467 65.98 0 119.466 53.487 119.466 119.467v17.067z" fill="#3B43F2"/></svg>