<svg xmlns="http://www.w3.org/2000/svg" width="76" height="78" viewBox="0 0 76 78"><defs><clipPath id="e7rja"><path d="M60.652 10.232c-18-17.78-33.332-9.694-36 3.852-2.668 13.546-27.45 16.25-24.39 32.25 3.06 16 36.39 6.5 36.39 21s38.538 14 38.538-5 3.462-34.322-14.538-52.102z"/></clipPath></defs><g><g><g><g><path fill="#fff" fill-opacity=".2" d="M60.652 10.232c-18-17.78-33.332-9.694-36 3.852-2.668 13.546-27.45 16.25-24.39 32.25 3.06 16 36.39 6.5 36.39 21s38.538 14 38.538-5 3.462-34.322-14.538-52.102z"/></g><g clip-path="url(#e7rja)" opacity=".2"><g opacity=".2"><path fill="#3b43f2" d="M0 0h76v78H0z"/></g></g></g><g><g><g><path fill="none" stroke="#3b43f2" stroke-linecap="round" stroke-linejoin="round" stroke-miterlimit="20" stroke-width="3" d="M52 25c0 7.732-6.268 14-14 14s-14-6.268-14-14 6.268-14 14-14 14 6.268 14 14z"/></g><g><path fill="none" stroke="#3b43f2" stroke-linecap="round" stroke-linejoin="round" stroke-miterlimit="20" stroke-width="3" d="M41.836 20.788A3.202 3.202 0 0 0 38.8 18.6h-1.6a3.2 3.2 0 0 0 0 6.4h1.6a3.2 3.2 0 0 1 0 6.4h-1.6a3.203 3.203 0 0 1-3.07-2.294"/></g><g transform="rotate(5 38 33)"><path fill="none" stroke="#3b43f2" stroke-linecap="round" stroke-linejoin="round" stroke-miterlimit="20" stroke-width="3" d="M37.915 32.007L38.089 34"/></g><g transform="rotate(5 38 17)"><path fill="none" stroke="#3b43f2" stroke-linecap="round" stroke-linejoin="round" stroke-miterlimit="20" stroke-width="3" d="M37.915 16.047l.174 1.993"/></g><g><path fill="none" stroke="#333" stroke-linecap="round" stroke-linejoin="round" stroke-miterlimit="20" stroke-width="3" d="M31.488 57v0H38c2.208 0 4-1.792 4-4s-1.792-4-4-4H28v0s-6-4-10-4-8 4-8 4v18h32v0l24-14c0-2.854-2.904-4.79-5.54-3.692L42 57v0H26v0"/></g></g></g></g></g></svg>