<svg xmlns="http://www.w3.org/2000/svg" width="79" height="80" viewBox="0 0 79 80"><defs><clipPath id="b2yda"><path d="M60.652 10.232c-18-17.78-33.332-9.694-36 3.852-2.668 13.546-27.45 16.25-24.39 32.25 3.06 16 36.39 6.5 36.39 21s38.538 14 38.538-5 3.462-34.322-14.538-52.102z"/></clipPath></defs><g><g><g><g><path fill="#fff" fill-opacity=".2" d="M60.652 10.232c-18-17.78-33.332-9.694-36 3.852-2.668 13.546-27.45 16.25-24.39 32.25 3.06 16 36.39 6.5 36.39 21s38.538 14 38.538-5 3.462-34.322-14.538-52.102z"/></g><g clip-path="url(#b2yda)" opacity=".2"><g opacity=".2"><path fill="#3b43f2" d="M0 0h76v78H0z"/></g></g></g></g><g><g><path fill="#333" d="M57.399 46.086a1.125 1.125 0 0 0-.526 1.704L67.02 62.139 50.27 56.34a1.124 1.124 0 0 0-1.488.962L47.21 74.771l-9.068-15.093a1.125 1.125 0 0 0-1.753-.222l-12.581 12.39 2.874-17.293a1.124 1.124 0 0 0-1.205-1.306L7.81 54.75l13.435-11.402a1.126 1.126 0 0 0-.087-1.782L6.662 31.514l17.727-.207a1.125 1.125 0 0 0 1.073-1.418l-4.569-16.928 13.743 11.116a1.124 1.124 0 0 0 1.724-.393L43.893 7.79l3.291 17.238a1.125 1.125 0 0 0 1.574.812l16.1-7.387-8.681 15.262a1.125 1.125 0 0 0 .688 1.643l17.108 4.551zm20.565-7.443l-19.11-5.084L68.54 16.53a1.125 1.125 0 0 0-1.447-1.58l-17.968 8.245-3.669-19.212a1.125 1.125 0 0 0-2.121-.27l-8.396 17.714L19.611 9.03a1.125 1.125 0 0 0-1.794 1.168l5.094 18.876-19.8.231a1.125 1.125 0 0 0-.627 2.05L18.673 42.58 3.672 55.31a1.125 1.125 0 0 0 .823 1.98l19.731-1.678-3.205 19.28a1.125 1.125 0 0 0 1.9.986l14.03-13.816 10.107 16.823a1.125 1.125 0 0 0 2.085-.478l1.752-19.47L69.59 65.41a1.124 1.124 0 0 0 1.287-1.713L59.554 47.684l18.514-6.9a1.125 1.125 0 0 0-.104-2.141z"/></g><g><path fill="#3b43f2" d="M42.246 23.359a1.125 1.125 0 0 0-1.498.534l-3.38 7.131-6.173-4.994a1.125 1.125 0 0 0-1.794 1.168l2.047 7.585-7.966.093a1.125 1.125 0 0 0-.628 2.05l6.504 4.51-6.026 5.114a1.125 1.125 0 0 0 .823 1.978l9.384-.798a1.124 1.124 0 1 0-.191-2.241l-5.877.5 4.46-3.785a1.126 1.126 0 0 0-.088-1.783l-4.81-3.336 5.892-.069a1.125 1.125 0 0 0 1.073-1.418l-1.52-5.636 4.587 3.711a1.124 1.124 0 0 0 1.724-.393l3.992-8.423a1.125 1.125 0 0 0-.535-1.498z"/></g></g></g></svg>