<svg xmlns="http://www.w3.org/2000/svg" width="79" height="80" viewBox="0 0 79 80"><defs><clipPath id="beupa"><path d="M60.652 10.232c-18-17.78-33.332-9.694-36 3.852-2.668 13.546-27.45 16.25-24.39 32.25 3.06 16 36.39 6.5 36.39 21s38.538 14 38.538-5 3.462-34.322-14.538-52.102z"/></clipPath></defs><g><g><g><g><path fill="#fff" fill-opacity=".2" d="M60.652 10.232c-18-17.78-33.332-9.694-36 3.852-2.668 13.546-27.45 16.25-24.39 32.25 3.06 16 36.39 6.5 36.39 21s38.538 14 38.538-5 3.462-34.322-14.538-52.102z"/></g><g clip-path="url(#beupa)" opacity=".2"><g opacity=".2"><path fill="#3b43f2" d="M0 0h76v78H0z"/></g></g></g><g><g><g><path fill="none" stroke="#3b43f2" stroke-linecap="round" stroke-linejoin="round" stroke-miterlimit="20" stroke-width="3" d="M44 42c0 2.208-1.792 4-4 4s-4-1.792-4-4 1.792-4 4-4 4 1.792 4 4z"/></g></g></g></g><g><path fill="#333" d="M55.39 15.99a2.734 2.734 0 0 1-2.73-2.73 2.734 2.734 0 0 1 2.73-2.73 2.734 2.734 0 0 1 2.731 2.73 2.734 2.734 0 0 1-2.73 2.73zm7.785 36.006a4.977 4.977 0 0 0-2.089 4.051 4.986 4.986 0 0 0 6.138 4.844c.9 3.214.739 5.619-.478 6.836-1.573 1.573-5.01 1.392-9.679-.51-2.921-1.19-6.225-3.03-9.68-5.37a97.68 97.68 0 0 0 2.67-6.439 17.147 17.147 0 0 0 4.371-4.37 98.4 98.4 0 0 0 6.44-2.67 70.349 70.349 0 0 1 2.307 3.628zm-5.874-8.51a92.907 92.907 0 0 1 2.258 3.007 93.713 93.713 0 0 1-3.45 1.475 16.863 16.863 0 0 0 1.192-4.483zm8.766 9.83a2.734 2.734 0 0 1 2.73 2.731 2.734 2.734 0 0 1-2.73 2.73 2.734 2.734 0 0 1-2.73-2.73 2.734 2.734 0 0 1 2.73-2.73zm-20.555 7.222a92.496 92.496 0 0 1-3.006-2.257c1.57-.193 3.073-.6 4.482-1.191a93.409 93.409 0 0 1-1.476 3.448zM30.695 77.45c-1.087-.29-2.548-1.386-3.582-4.862a4.987 4.987 0 0 0 2.987-4.563 4.988 4.988 0 0 0-4.126-4.905c-.008-1.703.06-3.511.201-5.398a97.405 97.405 0 0 0 6.986-.942A16.88 16.88 0 0 0 39 58.35a96.784 96.784 0 0 0 5.541 4.259c-1.834 3.774-3.786 7.036-5.729 9.54-3.095 3.988-5.978 5.872-8.118 5.301zm-5.576-6.684a2.736 2.736 0 0 1 0-5.472 2.736 2.736 0 0 1 0 5.472zM4.37 51.126c-.57-2.14 1.312-5.023 5.301-8.118 2.504-1.943 5.766-3.895 9.539-5.728a97.344 97.344 0 0 0 4.26 5.54 16.879 16.879 0 0 0 1.57 5.84 98.323 98.323 0 0 0-.944 6.985c-4.168.31-7.954.263-11.083-.157-5.004-.67-8.073-2.22-8.643-4.362zm19.169-11.8a92.802 92.802 0 0 1-2.26-3.013 93.12 93.12 0 0 1 3.451-1.48 16.942 16.942 0 0 0-1.191 4.493zm2.84 16.116c.126-1.241.286-2.511.471-3.798a17.145 17.145 0 0 0 3.327 3.326 93.277 93.277 0 0 1-3.799.472zm14.04-28.8c8.138 0 14.76 6.62 14.76 14.758 0 8.138-6.622 14.76-14.76 14.76-8.137 0-14.758-6.622-14.758-14.76s6.62-14.758 14.759-14.758zm-2.074-2.122a16.94 16.94 0 0 0-4.493 1.191c.48-1.183.974-2.335 1.48-3.45.997.715 2.003 1.47 3.013 2.259zm16.118 2.839a93.616 93.616 0 0 1-.474 3.8 17.155 17.155 0 0 0-3.327-3.328c1.29-.186 2.56-.345 3.8-.472zM50.147 5.351c1.468.39 2.448 1.918 3.075 3.426a4.987 4.987 0 0 0-2.812 4.483 4.987 4.987 0 0 0 4.43 4.95 64.94 64.94 0 0 1-.173 6.868 97.467 97.467 0 0 0-6.986.943 16.88 16.88 0 0 0-5.84-1.57 97.356 97.356 0 0 0-5.54-4.26c1.832-3.774 3.784-7.036 5.727-9.539 3.095-3.989 5.977-5.871 8.119-5.301zM13.187 27.77a2.734 2.734 0 0 1-2.732-2.73 2.734 2.734 0 0 1 2.731-2.731 2.734 2.734 0 0 1 2.73 2.73 2.734 2.734 0 0 1-2.73 2.731zm65.458 3.326c-.831-3.123-4.469-5.203-10.519-6.014-3.185-.427-7.004-.486-11.191-.194.173-2.458.224-4.79.148-6.944a4.989 4.989 0 0 0 3.288-4.684 4.986 4.986 0 0 0-4.927-4.98c-1.09-2.842-2.675-4.56-4.719-5.104-3.115-.83-6.737 1.279-10.475 6.097-1.979 2.55-3.96 5.838-5.82 9.624-2.325-1.56-4.587-2.904-6.727-3.985a1.125 1.125 0 0 0-1.014 2.008c2.144 1.084 4.421 2.442 6.766 4.031a97.752 97.752 0 0 0-2.67 6.442 17.149 17.149 0 0 0-4.372 4.371 98.28 98.28 0 0 0-6.443 2.667 65.185 65.185 0 0 1-3.466-5.68 4.969 4.969 0 0 0 1.663-3.711 4.986 4.986 0 0 0-4.968-4.98c-.292-1.778-.276-3.813.896-4.985 1.436-1.437 4.491-1.404 8.602.094a1.125 1.125 0 1 0 .77-2.114c-5.051-1.841-8.843-1.693-10.964.429-1.547 1.547-2.048 3.928-1.499 7.08a4.986 4.986 0 0 0-2.799 4.476 4.986 4.986 0 0 0 4.981 4.98c.467 0 .918-.066 1.346-.186a66.95 66.95 0 0 0 3.383 5.571c-3.547 1.74-7.02 3.805-9.622 5.825-4.818 3.738-6.926 7.36-6.097 10.475.831 3.123 4.469 5.203 10.519 6.014 3.375.452 7.518.46 11.191.193a69.655 69.655 0 0 0-.182 5.333 4.989 4.989 0 0 0-3.586 4.78A4.987 4.987 0 0 0 24.89 73c1.336 4.653 3.552 6.179 5.226 6.625 3.777 1.006 6.936-1.535 10.475-6.097 1.98-2.55 3.96-5.84 5.821-9.627 3.486 2.338 6.829 4.186 9.806 5.4 4.368 1.779 9.083 3.052 12.12.016 2.346-2.346 1.876-6.291.929-9.457a4.972 4.972 0 0 0 1.78-3.813c0-3.057-2.77-5.403-5.77-4.917a70.924 70.924 0 0 0-2.348-3.739c2.238-1.098 4.303-2.239 6.14-3.398a1.125 1.125 0 1 0-1.2-1.903c-1.855 1.17-3.954 2.322-6.235 3.43a97.302 97.302 0 0 0-4.265-5.54 16.88 16.88 0 0 0-1.57-5.84c.41-2.395.725-4.734.945-6.984 4.168-.31 7.954-.263 11.083.156 5.004.671 8.073 2.22 8.643 4.362.57 2.141-1.312 5.024-5.301 8.12a1.125 1.125 0 0 0 1.38 1.777c4.817-3.738 6.925-7.36 6.096-10.475z"/></g></g></svg>