<svg xmlns="http://www.w3.org/2000/svg" width="230" height="230" viewBox="0 0 230 230"><defs><linearGradient id="k46ma" x1="20.53" x2="-19" y1="3.97" y2="-5.06" gradientUnits="userSpaceOnUse"><stop offset="0" stop-color="#2ee8a9"/><stop offset="1" stop-color="#14aeea"/><stop offset="1" stop-color="#14aeea"/></linearGradient><linearGradient id="k46mb" x1="140.53" x2="101" y1="3.97" y2="-5.06" gradientUnits="userSpaceOnUse"><stop offset="0" stop-color="#2ee8a9"/><stop offset="1" stop-color="#14aeea"/><stop offset="1" stop-color="#14aeea"/></linearGradient><linearGradient id="k46mc" x1="20.53" x2="-19" y1="123.97" y2="114.94" gradientUnits="userSpaceOnUse"><stop offset="0" stop-color="#2ee8a9"/><stop offset="1" stop-color="#14aeea"/><stop offset="1" stop-color="#14aeea"/></linearGradient><linearGradient id="k46md" x1="140.53" x2="101" y1="123.97" y2="114.94" gradientUnits="userSpaceOnUse"><stop offset="0" stop-color="#2ee8a9"/><stop offset="1" stop-color="#14aeea"/><stop offset="1" stop-color="#14aeea"/></linearGradient><linearGradient id="k46me" x1="40.53" x2="1" y1="3.97" y2="-5.06" gradientUnits="userSpaceOnUse"><stop offset="0" stop-color="#2ee8a9"/><stop offset="1" stop-color="#14aeea"/><stop offset="1" stop-color="#14aeea"/></linearGradient><linearGradient id="k46mf" x1="160.53" x2="121" y1="3.97" y2="-5.06" gradientUnits="userSpaceOnUse"><stop offset="0" stop-color="#2ee8a9"/><stop offset="1" stop-color="#14aeea"/><stop offset="1" stop-color="#14aeea"/></linearGradient><linearGradient id="k46mg" x1="40.53" x2="1" y1="123.97" y2="114.94" gradientUnits="userSpaceOnUse"><stop offset="0" stop-color="#2ee8a9"/><stop offset="1" stop-color="#14aeea"/><stop offset="1" stop-color="#14aeea"/></linearGradient><linearGradient id="k46mh" x1="160.53" x2="121" y1="123.97" y2="114.94" gradientUnits="userSpaceOnUse"><stop offset="0" stop-color="#2ee8a9"/><stop offset="1" stop-color="#14aeea"/><stop offset="1" stop-color="#14aeea"/></linearGradient><linearGradient id="k46mi" x1="60.53" x2="21" y1="3.97" y2="-5.06" gradientUnits="userSpaceOnUse"><stop offset="0" stop-color="#2ee8a9"/><stop offset="1" stop-color="#14aeea"/><stop offset="1" stop-color="#14aeea"/></linearGradient><linearGradient id="k46mj" x1="180.53" x2="141" y1="3.97" y2="-5.06" gradientUnits="userSpaceOnUse"><stop offset="0" stop-color="#2ee8a9"/><stop offset="1" stop-color="#14aeea"/><stop offset="1" stop-color="#14aeea"/></linearGradient><linearGradient id="k46mk" x1="60.53" x2="21" y1="123.97" y2="114.94" gradientUnits="userSpaceOnUse"><stop offset="0" stop-color="#2ee8a9"/><stop offset="1" stop-color="#14aeea"/><stop offset="1" stop-color="#14aeea"/></linearGradient><linearGradient id="k46ml" x1="180.53" x2="141" y1="123.97" y2="114.94" gradientUnits="userSpaceOnUse"><stop offset="0" stop-color="#2ee8a9"/><stop offset="1" stop-color="#14aeea"/><stop offset="1" stop-color="#14aeea"/></linearGradient><linearGradient id="k46mm" x1="80.53" x2="41" y1="3.97" y2="-5.06" gradientUnits="userSpaceOnUse"><stop offset="0" stop-color="#2ee8a9"/><stop offset="1" stop-color="#14aeea"/><stop offset="1" stop-color="#14aeea"/></linearGradient><linearGradient id="k46mn" x1="200.53" x2="161" y1="3.97" y2="-5.06" gradientUnits="userSpaceOnUse"><stop offset="0" stop-color="#2ee8a9"/><stop offset="1" stop-color="#14aeea"/><stop offset="1" stop-color="#14aeea"/></linearGradient><linearGradient id="k46mo" x1="80.53" x2="41" y1="123.97" y2="114.94" gradientUnits="userSpaceOnUse"><stop offset="0" stop-color="#2ee8a9"/><stop offset="1" stop-color="#14aeea"/><stop offset="1" stop-color="#14aeea"/></linearGradient><linearGradient id="k46mp" x1="200.53" x2="161" y1="123.97" y2="114.94" gradientUnits="userSpaceOnUse"><stop offset="0" stop-color="#2ee8a9"/><stop offset="1" stop-color="#14aeea"/><stop offset="1" stop-color="#14aeea"/></linearGradient><linearGradient id="k46mq" x1="100.53" x2="61" y1="3.97" y2="-5.06" gradientUnits="userSpaceOnUse"><stop offset="0" stop-color="#2ee8a9"/><stop offset="1" stop-color="#14aeea"/><stop offset="1" stop-color="#14aeea"/></linearGradient><linearGradient id="k46mr" x1="220.53" x2="181" y1="3.97" y2="-5.06" gradientUnits="userSpaceOnUse"><stop offset="0" stop-color="#2ee8a9"/><stop offset="1" stop-color="#14aeea"/><stop offset="1" stop-color="#14aeea"/></linearGradient><linearGradient id="k46ms" x1="100.53" x2="61" y1="123.97" y2="114.94" gradientUnits="userSpaceOnUse"><stop offset="0" stop-color="#2ee8a9"/><stop offset="1" stop-color="#14aeea"/><stop offset="1" stop-color="#14aeea"/></linearGradient><linearGradient id="k46mt" x1="220.53" x2="181" y1="123.97" y2="114.94" gradientUnits="userSpaceOnUse"><stop offset="0" stop-color="#2ee8a9"/><stop offset="1" stop-color="#14aeea"/><stop offset="1" stop-color="#14aeea"/></linearGradient><linearGradient id="k46mu" x1="120.53" x2="81" y1="3.97" y2="-5.06" gradientUnits="userSpaceOnUse"><stop offset="0" stop-color="#2ee8a9"/><stop offset="1" stop-color="#14aeea"/><stop offset="1" stop-color="#14aeea"/></linearGradient><linearGradient id="k46mv" x1="240.53" x2="201" y1="3.97" y2="-5.06" gradientUnits="userSpaceOnUse"><stop offset="0" stop-color="#2ee8a9"/><stop offset="1" stop-color="#14aeea"/><stop offset="1" stop-color="#14aeea"/></linearGradient><linearGradient id="k46mw" x1="120.53" x2="81" y1="123.97" y2="114.94" gradientUnits="userSpaceOnUse"><stop offset="0" stop-color="#2ee8a9"/><stop offset="1" stop-color="#14aeea"/><stop offset="1" stop-color="#14aeea"/></linearGradient><linearGradient id="k46mx" x1="240.53" x2="201" y1="123.97" y2="114.94" gradientUnits="userSpaceOnUse"><stop offset="0" stop-color="#2ee8a9"/><stop offset="1" stop-color="#14aeea"/><stop offset="1" stop-color="#14aeea"/></linearGradient><linearGradient id="k46my" x1="20.53" x2="-19" y1="23.97" y2="14.94" gradientUnits="userSpaceOnUse"><stop offset="0" stop-color="#2ee8a9"/><stop offset="1" stop-color="#14aeea"/><stop offset="1" stop-color="#14aeea"/></linearGradient><linearGradient id="k46mz" x1="140.53" x2="101" y1="23.97" y2="14.94" gradientUnits="userSpaceOnUse"><stop offset="0" stop-color="#2ee8a9"/><stop offset="1" stop-color="#14aeea"/><stop offset="1" stop-color="#14aeea"/></linearGradient><linearGradient id="k46mA" x1="20.53" x2="-19" y1="143.97" y2="134.94" gradientUnits="userSpaceOnUse"><stop offset="0" stop-color="#2ee8a9"/><stop offset="1" stop-color="#14aeea"/><stop offset="1" stop-color="#14aeea"/></linearGradient><linearGradient id="k46mB" x1="140.53" x2="101" y1="143.97" y2="134.94" gradientUnits="userSpaceOnUse"><stop offset="0" stop-color="#2ee8a9"/><stop offset="1" stop-color="#14aeea"/><stop offset="1" stop-color="#14aeea"/></linearGradient><linearGradient id="k46mC" x1="40.53" x2="1" y1="23.97" y2="14.94" gradientUnits="userSpaceOnUse"><stop offset="0" stop-color="#2ee8a9"/><stop offset="1" stop-color="#14aeea"/><stop offset="1" stop-color="#14aeea"/></linearGradient><linearGradient id="k46mD" x1="160.53" x2="121" y1="23.97" y2="14.94" gradientUnits="userSpaceOnUse"><stop offset="0" stop-color="#2ee8a9"/><stop offset="1" stop-color="#14aeea"/><stop offset="1" stop-color="#14aeea"/></linearGradient><linearGradient id="k46mE" x1="40.53" x2="1" y1="143.97" y2="134.94" gradientUnits="userSpaceOnUse"><stop offset="0" stop-color="#2ee8a9"/><stop offset="1" stop-color="#14aeea"/><stop offset="1" stop-color="#14aeea"/></linearGradient><linearGradient id="k46mF" x1="160.53" x2="121" y1="143.97" y2="134.94" gradientUnits="userSpaceOnUse"><stop offset="0" stop-color="#2ee8a9"/><stop offset="1" stop-color="#14aeea"/><stop offset="1" stop-color="#14aeea"/></linearGradient><linearGradient id="k46mG" x1="60.53" x2="21" y1="23.97" y2="14.94" gradientUnits="userSpaceOnUse"><stop offset="0" stop-color="#2ee8a9"/><stop offset="1" stop-color="#14aeea"/><stop offset="1" stop-color="#14aeea"/></linearGradient><linearGradient id="k46mH" x1="180.53" x2="141" y1="23.97" y2="14.94" gradientUnits="userSpaceOnUse"><stop offset="0" stop-color="#2ee8a9"/><stop offset="1" stop-color="#14aeea"/><stop offset="1" stop-color="#14aeea"/></linearGradient><linearGradient id="k46mI" x1="60.53" x2="21" y1="143.97" y2="134.94" gradientUnits="userSpaceOnUse"><stop offset="0" stop-color="#2ee8a9"/><stop offset="1" stop-color="#14aeea"/><stop offset="1" stop-color="#14aeea"/></linearGradient><linearGradient id="k46mJ" x1="180.53" x2="141" y1="143.97" y2="134.94" gradientUnits="userSpaceOnUse"><stop offset="0" stop-color="#2ee8a9"/><stop offset="1" stop-color="#14aeea"/><stop offset="1" stop-color="#14aeea"/></linearGradient><linearGradient id="k46mK" x1="80.53" x2="41" y1="23.97" y2="14.94" gradientUnits="userSpaceOnUse"><stop offset="0" stop-color="#2ee8a9"/><stop offset="1" stop-color="#14aeea"/><stop offset="1" stop-color="#14aeea"/></linearGradient><linearGradient id="k46mL" x1="200.53" x2="161" y1="23.97" y2="14.94" gradientUnits="userSpaceOnUse"><stop offset="0" stop-color="#2ee8a9"/><stop offset="1" stop-color="#14aeea"/><stop offset="1" stop-color="#14aeea"/></linearGradient><linearGradient id="k46mM" x1="80.53" x2="41" y1="143.97" y2="134.94" gradientUnits="userSpaceOnUse"><stop offset="0" stop-color="#2ee8a9"/><stop offset="1" stop-color="#14aeea"/><stop offset="1" stop-color="#14aeea"/></linearGradient><linearGradient id="k46mN" x1="200.53" x2="161" y1="143.97" y2="134.94" gradientUnits="userSpaceOnUse"><stop offset="0" stop-color="#2ee8a9"/><stop offset="1" stop-color="#14aeea"/><stop offset="1" stop-color="#14aeea"/></linearGradient><linearGradient id="k46mO" x1="100.53" x2="61" y1="23.97" y2="14.94" gradientUnits="userSpaceOnUse"><stop offset="0" stop-color="#2ee8a9"/><stop offset="1" stop-color="#14aeea"/><stop offset="1" stop-color="#14aeea"/></linearGradient><linearGradient id="k46mP" x1="220.53" x2="181" y1="23.97" y2="14.94" gradientUnits="userSpaceOnUse"><stop offset="0" stop-color="#2ee8a9"/><stop offset="1" stop-color="#14aeea"/><stop offset="1" stop-color="#14aeea"/></linearGradient><linearGradient id="k46mQ" x1="100.53" x2="61" y1="143.97" y2="134.94" gradientUnits="userSpaceOnUse"><stop offset="0" stop-color="#2ee8a9"/><stop offset="1" stop-color="#14aeea"/><stop offset="1" stop-color="#14aeea"/></linearGradient><linearGradient id="k46mR" x1="220.53" x2="181" y1="143.97" y2="134.94" gradientUnits="userSpaceOnUse"><stop offset="0" stop-color="#2ee8a9"/><stop offset="1" stop-color="#14aeea"/><stop offset="1" stop-color="#14aeea"/></linearGradient><linearGradient id="k46mS" x1="120.53" x2="81" y1="23.97" y2="14.94" gradientUnits="userSpaceOnUse"><stop offset="0" stop-color="#2ee8a9"/><stop offset="1" stop-color="#14aeea"/><stop offset="1" stop-color="#14aeea"/></linearGradient><linearGradient id="k46mT" x1="240.53" x2="201" y1="23.97" y2="14.94" gradientUnits="userSpaceOnUse"><stop offset="0" stop-color="#2ee8a9"/><stop offset="1" stop-color="#14aeea"/><stop offset="1" stop-color="#14aeea"/></linearGradient><linearGradient id="k46mU" x1="120.53" x2="81" y1="143.97" y2="134.94" gradientUnits="userSpaceOnUse"><stop offset="0" stop-color="#2ee8a9"/><stop offset="1" stop-color="#14aeea"/><stop offset="1" stop-color="#14aeea"/></linearGradient><linearGradient id="k46mV" x1="240.53" x2="201" y1="143.97" y2="134.94" gradientUnits="userSpaceOnUse"><stop offset="0" stop-color="#2ee8a9"/><stop offset="1" stop-color="#14aeea"/><stop offset="1" stop-color="#14aeea"/></linearGradient><linearGradient id="k46mW" x1="20.53" x2="-19" y1="43.97" y2="34.94" gradientUnits="userSpaceOnUse"><stop offset="0" stop-color="#2ee8a9"/><stop offset="1" stop-color="#14aeea"/><stop offset="1" stop-color="#14aeea"/></linearGradient><linearGradient id="k46mX" x1="140.53" x2="101" y1="43.97" y2="34.94" gradientUnits="userSpaceOnUse"><stop offset="0" stop-color="#2ee8a9"/><stop offset="1" stop-color="#14aeea"/><stop offset="1" stop-color="#14aeea"/></linearGradient><linearGradient id="k46mY" x1="20.53" x2="-19" y1="163.97" y2="154.94" gradientUnits="userSpaceOnUse"><stop offset="0" stop-color="#2ee8a9"/><stop offset="1" stop-color="#14aeea"/><stop offset="1" stop-color="#14aeea"/></linearGradient><linearGradient id="k46mZ" x1="140.53" x2="101" y1="163.97" y2="154.94" gradientUnits="userSpaceOnUse"><stop offset="0" stop-color="#2ee8a9"/><stop offset="1" stop-color="#14aeea"/><stop offset="1" stop-color="#14aeea"/></linearGradient><linearGradient id="k46maa" x1="40.53" x2="1" y1="43.97" y2="34.94" gradientUnits="userSpaceOnUse"><stop offset="0" stop-color="#2ee8a9"/><stop offset="1" stop-color="#14aeea"/><stop offset="1" stop-color="#14aeea"/></linearGradient><linearGradient id="k46mab" x1="160.53" x2="121" y1="43.97" y2="34.94" gradientUnits="userSpaceOnUse"><stop offset="0" stop-color="#2ee8a9"/><stop offset="1" stop-color="#14aeea"/><stop offset="1" stop-color="#14aeea"/></linearGradient><linearGradient id="k46mac" x1="40.53" x2="1" y1="163.97" y2="154.94" gradientUnits="userSpaceOnUse"><stop offset="0" stop-color="#2ee8a9"/><stop offset="1" stop-color="#14aeea"/><stop offset="1" stop-color="#14aeea"/></linearGradient><linearGradient id="k46mad" x1="160.53" x2="121" y1="163.97" y2="154.94" gradientUnits="userSpaceOnUse"><stop offset="0" stop-color="#2ee8a9"/><stop offset="1" stop-color="#14aeea"/><stop offset="1" stop-color="#14aeea"/></linearGradient><linearGradient id="k46mae" x1="60.53" x2="21" y1="43.97" y2="34.94" gradientUnits="userSpaceOnUse"><stop offset="0" stop-color="#2ee8a9"/><stop offset="1" stop-color="#14aeea"/><stop offset="1" stop-color="#14aeea"/></linearGradient><linearGradient id="k46maf" x1="180.53" x2="141" y1="43.97" y2="34.94" gradientUnits="userSpaceOnUse"><stop offset="0" stop-color="#2ee8a9"/><stop offset="1" stop-color="#14aeea"/><stop offset="1" stop-color="#14aeea"/></linearGradient><linearGradient id="k46mag" x1="60.53" x2="21" y1="163.97" y2="154.94" gradientUnits="userSpaceOnUse"><stop offset="0" stop-color="#2ee8a9"/><stop offset="1" stop-color="#14aeea"/><stop offset="1" stop-color="#14aeea"/></linearGradient><linearGradient id="k46mah" x1="180.53" x2="141" y1="163.97" y2="154.94" gradientUnits="userSpaceOnUse"><stop offset="0" stop-color="#2ee8a9"/><stop offset="1" stop-color="#14aeea"/><stop offset="1" stop-color="#14aeea"/></linearGradient><linearGradient id="k46mai" x1="80.53" x2="41" y1="43.97" y2="34.94" gradientUnits="userSpaceOnUse"><stop offset="0" stop-color="#2ee8a9"/><stop offset="1" stop-color="#14aeea"/><stop offset="1" stop-color="#14aeea"/></linearGradient><linearGradient id="k46maj" x1="200.53" x2="161" y1="43.97" y2="34.94" gradientUnits="userSpaceOnUse"><stop offset="0" stop-color="#2ee8a9"/><stop offset="1" stop-color="#14aeea"/><stop offset="1" stop-color="#14aeea"/></linearGradient><linearGradient id="k46mak" x1="80.53" x2="41" y1="163.97" y2="154.94" gradientUnits="userSpaceOnUse"><stop offset="0" stop-color="#2ee8a9"/><stop offset="1" stop-color="#14aeea"/><stop offset="1" stop-color="#14aeea"/></linearGradient><linearGradient id="k46mal" x1="200.53" x2="161" y1="163.97" y2="154.94" gradientUnits="userSpaceOnUse"><stop offset="0" stop-color="#2ee8a9"/><stop offset="1" stop-color="#14aeea"/><stop offset="1" stop-color="#14aeea"/></linearGradient><linearGradient id="k46mam" x1="100.53" x2="61" y1="43.97" y2="34.94" gradientUnits="userSpaceOnUse"><stop offset="0" stop-color="#2ee8a9"/><stop offset="1" stop-color="#14aeea"/><stop offset="1" stop-color="#14aeea"/></linearGradient><linearGradient id="k46man" x1="220.53" x2="181" y1="43.97" y2="34.94" gradientUnits="userSpaceOnUse"><stop offset="0" stop-color="#2ee8a9"/><stop offset="1" stop-color="#14aeea"/><stop offset="1" stop-color="#14aeea"/></linearGradient><linearGradient id="k46mao" x1="100.53" x2="61" y1="163.97" y2="154.94" gradientUnits="userSpaceOnUse"><stop offset="0" stop-color="#2ee8a9"/><stop offset="1" stop-color="#14aeea"/><stop offset="1" stop-color="#14aeea"/></linearGradient><linearGradient id="k46map" x1="220.53" x2="181" y1="163.97" y2="154.94" gradientUnits="userSpaceOnUse"><stop offset="0" stop-color="#2ee8a9"/><stop offset="1" stop-color="#14aeea"/><stop offset="1" stop-color="#14aeea"/></linearGradient><linearGradient id="k46maq" x1="120.53" x2="81" y1="43.97" y2="34.94" gradientUnits="userSpaceOnUse"><stop offset="0" stop-color="#2ee8a9"/><stop offset="1" stop-color="#14aeea"/><stop offset="1" stop-color="#14aeea"/></linearGradient><linearGradient id="k46mar" x1="240.53" x2="201" y1="43.97" y2="34.94" gradientUnits="userSpaceOnUse"><stop offset="0" stop-color="#2ee8a9"/><stop offset="1" stop-color="#14aeea"/><stop offset="1" stop-color="#14aeea"/></linearGradient><linearGradient id="k46mas" x1="120.53" x2="81" y1="163.97" y2="154.94" gradientUnits="userSpaceOnUse"><stop offset="0" stop-color="#2ee8a9"/><stop offset="1" stop-color="#14aeea"/><stop offset="1" stop-color="#14aeea"/></linearGradient><linearGradient id="k46mat" x1="240.53" x2="201" y1="163.97" y2="154.94" gradientUnits="userSpaceOnUse"><stop offset="0" stop-color="#2ee8a9"/><stop offset="1" stop-color="#14aeea"/><stop offset="1" stop-color="#14aeea"/></linearGradient><linearGradient id="k46mau" x1="20.53" x2="-19" y1="63.97" y2="54.94" gradientUnits="userSpaceOnUse"><stop offset="0" stop-color="#2ee8a9"/><stop offset="1" stop-color="#14aeea"/><stop offset="1" stop-color="#14aeea"/></linearGradient><linearGradient id="k46mav" x1="140.53" x2="101" y1="63.97" y2="54.94" gradientUnits="userSpaceOnUse"><stop offset="0" stop-color="#2ee8a9"/><stop offset="1" stop-color="#14aeea"/><stop offset="1" stop-color="#14aeea"/></linearGradient><linearGradient id="k46maw" x1="20.53" x2="-19" y1="183.97" y2="174.94" gradientUnits="userSpaceOnUse"><stop offset="0" stop-color="#2ee8a9"/><stop offset="1" stop-color="#14aeea"/><stop offset="1" stop-color="#14aeea"/></linearGradient><linearGradient id="k46max" x1="140.53" x2="101" y1="183.97" y2="174.94" gradientUnits="userSpaceOnUse"><stop offset="0" stop-color="#2ee8a9"/><stop offset="1" stop-color="#14aeea"/><stop offset="1" stop-color="#14aeea"/></linearGradient><linearGradient id="k46may" x1="40.53" x2="1" y1="63.97" y2="54.94" gradientUnits="userSpaceOnUse"><stop offset="0" stop-color="#2ee8a9"/><stop offset="1" stop-color="#14aeea"/><stop offset="1" stop-color="#14aeea"/></linearGradient><linearGradient id="k46maz" x1="160.53" x2="121" y1="63.97" y2="54.94" gradientUnits="userSpaceOnUse"><stop offset="0" stop-color="#2ee8a9"/><stop offset="1" stop-color="#14aeea"/><stop offset="1" stop-color="#14aeea"/></linearGradient><linearGradient id="k46maA" x1="40.53" x2="1" y1="183.97" y2="174.94" gradientUnits="userSpaceOnUse"><stop offset="0" stop-color="#2ee8a9"/><stop offset="1" stop-color="#14aeea"/><stop offset="1" stop-color="#14aeea"/></linearGradient><linearGradient id="k46maB" x1="160.53" x2="121" y1="183.97" y2="174.94" gradientUnits="userSpaceOnUse"><stop offset="0" stop-color="#2ee8a9"/><stop offset="1" stop-color="#14aeea"/><stop offset="1" stop-color="#14aeea"/></linearGradient><linearGradient id="k46maC" x1="60.53" x2="21" y1="63.97" y2="54.94" gradientUnits="userSpaceOnUse"><stop offset="0" stop-color="#2ee8a9"/><stop offset="1" stop-color="#14aeea"/><stop offset="1" stop-color="#14aeea"/></linearGradient><linearGradient id="k46maD" x1="180.53" x2="141" y1="63.97" y2="54.94" gradientUnits="userSpaceOnUse"><stop offset="0" stop-color="#2ee8a9"/><stop offset="1" stop-color="#14aeea"/><stop offset="1" stop-color="#14aeea"/></linearGradient><linearGradient id="k46maE" x1="60.53" x2="21" y1="183.97" y2="174.94" gradientUnits="userSpaceOnUse"><stop offset="0" stop-color="#2ee8a9"/><stop offset="1" stop-color="#14aeea"/><stop offset="1" stop-color="#14aeea"/></linearGradient><linearGradient id="k46maF" x1="180.53" x2="141" y1="183.97" y2="174.94" gradientUnits="userSpaceOnUse"><stop offset="0" stop-color="#2ee8a9"/><stop offset="1" stop-color="#14aeea"/><stop offset="1" stop-color="#14aeea"/></linearGradient><linearGradient id="k46maG" x1="80.53" x2="41" y1="63.97" y2="54.94" gradientUnits="userSpaceOnUse"><stop offset="0" stop-color="#2ee8a9"/><stop offset="1" stop-color="#14aeea"/><stop offset="1" stop-color="#14aeea"/></linearGradient><linearGradient id="k46maH" x1="200.53" x2="161" y1="63.97" y2="54.94" gradientUnits="userSpaceOnUse"><stop offset="0" stop-color="#2ee8a9"/><stop offset="1" stop-color="#14aeea"/><stop offset="1" stop-color="#14aeea"/></linearGradient><linearGradient id="k46maI" x1="80.53" x2="41" y1="183.97" y2="174.94" gradientUnits="userSpaceOnUse"><stop offset="0" stop-color="#2ee8a9"/><stop offset="1" stop-color="#14aeea"/><stop offset="1" stop-color="#14aeea"/></linearGradient><linearGradient id="k46maJ" x1="200.53" x2="161" y1="183.97" y2="174.94" gradientUnits="userSpaceOnUse"><stop offset="0" stop-color="#2ee8a9"/><stop offset="1" stop-color="#14aeea"/><stop offset="1" stop-color="#14aeea"/></linearGradient><linearGradient id="k46maK" x1="100.53" x2="61" y1="63.97" y2="54.94" gradientUnits="userSpaceOnUse"><stop offset="0" stop-color="#2ee8a9"/><stop offset="1" stop-color="#14aeea"/><stop offset="1" stop-color="#14aeea"/></linearGradient><linearGradient id="k46maL" x1="220.53" x2="181" y1="63.97" y2="54.94" gradientUnits="userSpaceOnUse"><stop offset="0" stop-color="#2ee8a9"/><stop offset="1" stop-color="#14aeea"/><stop offset="1" stop-color="#14aeea"/></linearGradient><linearGradient id="k46maM" x1="100.53" x2="61" y1="183.97" y2="174.94" gradientUnits="userSpaceOnUse"><stop offset="0" stop-color="#2ee8a9"/><stop offset="1" stop-color="#14aeea"/><stop offset="1" stop-color="#14aeea"/></linearGradient><linearGradient id="k46maN" x1="220.53" x2="181" y1="183.97" y2="174.94" gradientUnits="userSpaceOnUse"><stop offset="0" stop-color="#2ee8a9"/><stop offset="1" stop-color="#14aeea"/><stop offset="1" stop-color="#14aeea"/></linearGradient><linearGradient id="k46maO" x1="120.53" x2="81" y1="63.97" y2="54.94" gradientUnits="userSpaceOnUse"><stop offset="0" stop-color="#2ee8a9"/><stop offset="1" stop-color="#14aeea"/><stop offset="1" stop-color="#14aeea"/></linearGradient><linearGradient id="k46maP" x1="240.53" x2="201" y1="63.97" y2="54.94" gradientUnits="userSpaceOnUse"><stop offset="0" stop-color="#2ee8a9"/><stop offset="1" stop-color="#14aeea"/><stop offset="1" stop-color="#14aeea"/></linearGradient><linearGradient id="k46maQ" x1="120.53" x2="81" y1="183.97" y2="174.94" gradientUnits="userSpaceOnUse"><stop offset="0" stop-color="#2ee8a9"/><stop offset="1" stop-color="#14aeea"/><stop offset="1" stop-color="#14aeea"/></linearGradient><linearGradient id="k46maR" x1="240.53" x2="201" y1="183.97" y2="174.94" gradientUnits="userSpaceOnUse"><stop offset="0" stop-color="#2ee8a9"/><stop offset="1" stop-color="#14aeea"/><stop offset="1" stop-color="#14aeea"/></linearGradient><linearGradient id="k46maS" x1="20.53" x2="-19" y1="83.97" y2="74.94" gradientUnits="userSpaceOnUse"><stop offset="0" stop-color="#2ee8a9"/><stop offset="1" stop-color="#14aeea"/><stop offset="1" stop-color="#14aeea"/></linearGradient><linearGradient id="k46maT" x1="140.53" x2="101" y1="83.97" y2="74.94" gradientUnits="userSpaceOnUse"><stop offset="0" stop-color="#2ee8a9"/><stop offset="1" stop-color="#14aeea"/><stop offset="1" stop-color="#14aeea"/></linearGradient><linearGradient id="k46maU" x1="20.53" x2="-19" y1="203.97" y2="194.94" gradientUnits="userSpaceOnUse"><stop offset="0" stop-color="#2ee8a9"/><stop offset="1" stop-color="#14aeea"/><stop offset="1" stop-color="#14aeea"/></linearGradient><linearGradient id="k46maV" x1="140.53" x2="101" y1="203.97" y2="194.94" gradientUnits="userSpaceOnUse"><stop offset="0" stop-color="#2ee8a9"/><stop offset="1" stop-color="#14aeea"/><stop offset="1" stop-color="#14aeea"/></linearGradient><linearGradient id="k46maW" x1="40.53" x2="1" y1="83.97" y2="74.94" gradientUnits="userSpaceOnUse"><stop offset="0" stop-color="#2ee8a9"/><stop offset="1" stop-color="#14aeea"/><stop offset="1" stop-color="#14aeea"/></linearGradient><linearGradient id="k46maX" x1="160.53" x2="121" y1="83.97" y2="74.94" gradientUnits="userSpaceOnUse"><stop offset="0" stop-color="#2ee8a9"/><stop offset="1" stop-color="#14aeea"/><stop offset="1" stop-color="#14aeea"/></linearGradient><linearGradient id="k46maY" x1="40.53" x2="1" y1="203.97" y2="194.94" gradientUnits="userSpaceOnUse"><stop offset="0" stop-color="#2ee8a9"/><stop offset="1" stop-color="#14aeea"/><stop offset="1" stop-color="#14aeea"/></linearGradient><linearGradient id="k46maZ" x1="160.53" x2="121" y1="203.97" y2="194.94" gradientUnits="userSpaceOnUse"><stop offset="0" stop-color="#2ee8a9"/><stop offset="1" stop-color="#14aeea"/><stop offset="1" stop-color="#14aeea"/></linearGradient><linearGradient id="k46mba" x1="60.53" x2="21" y1="83.97" y2="74.94" gradientUnits="userSpaceOnUse"><stop offset="0" stop-color="#2ee8a9"/><stop offset="1" stop-color="#14aeea"/><stop offset="1" stop-color="#14aeea"/></linearGradient><linearGradient id="k46mbb" x1="180.53" x2="141" y1="83.97" y2="74.94" gradientUnits="userSpaceOnUse"><stop offset="0" stop-color="#2ee8a9"/><stop offset="1" stop-color="#14aeea"/><stop offset="1" stop-color="#14aeea"/></linearGradient><linearGradient id="k46mbc" x1="60.53" x2="21" y1="203.97" y2="194.94" gradientUnits="userSpaceOnUse"><stop offset="0" stop-color="#2ee8a9"/><stop offset="1" stop-color="#14aeea"/><stop offset="1" stop-color="#14aeea"/></linearGradient><linearGradient id="k46mbd" x1="180.53" x2="141" y1="203.97" y2="194.94" gradientUnits="userSpaceOnUse"><stop offset="0" stop-color="#2ee8a9"/><stop offset="1" stop-color="#14aeea"/><stop offset="1" stop-color="#14aeea"/></linearGradient><linearGradient id="k46mbe" x1="80.53" x2="41" y1="83.97" y2="74.94" gradientUnits="userSpaceOnUse"><stop offset="0" stop-color="#2ee8a9"/><stop offset="1" stop-color="#14aeea"/><stop offset="1" stop-color="#14aeea"/></linearGradient><linearGradient id="k46mbf" x1="200.53" x2="161" y1="83.97" y2="74.94" gradientUnits="userSpaceOnUse"><stop offset="0" stop-color="#2ee8a9"/><stop offset="1" stop-color="#14aeea"/><stop offset="1" stop-color="#14aeea"/></linearGradient><linearGradient id="k46mbg" x1="80.53" x2="41" y1="203.97" y2="194.94" gradientUnits="userSpaceOnUse"><stop offset="0" stop-color="#2ee8a9"/><stop offset="1" stop-color="#14aeea"/><stop offset="1" stop-color="#14aeea"/></linearGradient><linearGradient id="k46mbh" x1="200.53" x2="161" y1="203.97" y2="194.94" gradientUnits="userSpaceOnUse"><stop offset="0" stop-color="#2ee8a9"/><stop offset="1" stop-color="#14aeea"/><stop offset="1" stop-color="#14aeea"/></linearGradient><linearGradient id="k46mbi" x1="100.53" x2="61" y1="83.97" y2="74.94" gradientUnits="userSpaceOnUse"><stop offset="0" stop-color="#2ee8a9"/><stop offset="1" stop-color="#14aeea"/><stop offset="1" stop-color="#14aeea"/></linearGradient><linearGradient id="k46mbj" x1="220.53" x2="181" y1="83.97" y2="74.94" gradientUnits="userSpaceOnUse"><stop offset="0" stop-color="#2ee8a9"/><stop offset="1" stop-color="#14aeea"/><stop offset="1" stop-color="#14aeea"/></linearGradient><linearGradient id="k46mbk" x1="100.53" x2="61" y1="203.97" y2="194.94" gradientUnits="userSpaceOnUse"><stop offset="0" stop-color="#2ee8a9"/><stop offset="1" stop-color="#14aeea"/><stop offset="1" stop-color="#14aeea"/></linearGradient><linearGradient id="k46mbl" x1="220.53" x2="181" y1="203.97" y2="194.94" gradientUnits="userSpaceOnUse"><stop offset="0" stop-color="#2ee8a9"/><stop offset="1" stop-color="#14aeea"/><stop offset="1" stop-color="#14aeea"/></linearGradient><linearGradient id="k46mbm" x1="120.53" x2="81" y1="83.97" y2="74.94" gradientUnits="userSpaceOnUse"><stop offset="0" stop-color="#2ee8a9"/><stop offset="1" stop-color="#14aeea"/><stop offset="1" stop-color="#14aeea"/></linearGradient><linearGradient id="k46mbn" x1="240.53" x2="201" y1="83.97" y2="74.94" gradientUnits="userSpaceOnUse"><stop offset="0" stop-color="#2ee8a9"/><stop offset="1" stop-color="#14aeea"/><stop offset="1" stop-color="#14aeea"/></linearGradient><linearGradient id="k46mbo" x1="120.53" x2="81" y1="203.97" y2="194.94" gradientUnits="userSpaceOnUse"><stop offset="0" stop-color="#2ee8a9"/><stop offset="1" stop-color="#14aeea"/><stop offset="1" stop-color="#14aeea"/></linearGradient><linearGradient id="k46mbp" x1="240.53" x2="201" y1="203.97" y2="194.94" gradientUnits="userSpaceOnUse"><stop offset="0" stop-color="#2ee8a9"/><stop offset="1" stop-color="#14aeea"/><stop offset="1" stop-color="#14aeea"/></linearGradient><linearGradient id="k46mbq" x1="20.53" x2="-19" y1="103.97" y2="94.94" gradientUnits="userSpaceOnUse"><stop offset="0" stop-color="#2ee8a9"/><stop offset="1" stop-color="#14aeea"/><stop offset="1" stop-color="#14aeea"/></linearGradient><linearGradient id="k46mbr" x1="140.53" x2="101" y1="103.97" y2="94.94" gradientUnits="userSpaceOnUse"><stop offset="0" stop-color="#2ee8a9"/><stop offset="1" stop-color="#14aeea"/><stop offset="1" stop-color="#14aeea"/></linearGradient><linearGradient id="k46mbs" x1="20.53" x2="-19" y1="223.97" y2="214.94" gradientUnits="userSpaceOnUse"><stop offset="0" stop-color="#2ee8a9"/><stop offset="1" stop-color="#14aeea"/><stop offset="1" stop-color="#14aeea"/></linearGradient><linearGradient id="k46mbt" x1="140.53" x2="101" y1="223.97" y2="214.94" gradientUnits="userSpaceOnUse"><stop offset="0" stop-color="#2ee8a9"/><stop offset="1" stop-color="#14aeea"/><stop offset="1" stop-color="#14aeea"/></linearGradient><linearGradient id="k46mbu" x1="40.53" x2="1" y1="103.97" y2="94.94" gradientUnits="userSpaceOnUse"><stop offset="0" stop-color="#2ee8a9"/><stop offset="1" stop-color="#14aeea"/><stop offset="1" stop-color="#14aeea"/></linearGradient><linearGradient id="k46mbv" x1="160.53" x2="121" y1="103.97" y2="94.94" gradientUnits="userSpaceOnUse"><stop offset="0" stop-color="#2ee8a9"/><stop offset="1" stop-color="#14aeea"/><stop offset="1" stop-color="#14aeea"/></linearGradient><linearGradient id="k46mbw" x1="40.53" x2="1" y1="223.97" y2="214.94" gradientUnits="userSpaceOnUse"><stop offset="0" stop-color="#2ee8a9"/><stop offset="1" stop-color="#14aeea"/><stop offset="1" stop-color="#14aeea"/></linearGradient><linearGradient id="k46mbx" x1="160.53" x2="121" y1="223.97" y2="214.94" gradientUnits="userSpaceOnUse"><stop offset="0" stop-color="#2ee8a9"/><stop offset="1" stop-color="#14aeea"/><stop offset="1" stop-color="#14aeea"/></linearGradient><linearGradient id="k46mby" x1="60.53" x2="21" y1="103.97" y2="94.94" gradientUnits="userSpaceOnUse"><stop offset="0" stop-color="#2ee8a9"/><stop offset="1" stop-color="#14aeea"/><stop offset="1" stop-color="#14aeea"/></linearGradient><linearGradient id="k46mbz" x1="180.53" x2="141" y1="103.97" y2="94.94" gradientUnits="userSpaceOnUse"><stop offset="0" stop-color="#2ee8a9"/><stop offset="1" stop-color="#14aeea"/><stop offset="1" stop-color="#14aeea"/></linearGradient><linearGradient id="k46mbA" x1="60.53" x2="21" y1="223.97" y2="214.94" gradientUnits="userSpaceOnUse"><stop offset="0" stop-color="#2ee8a9"/><stop offset="1" stop-color="#14aeea"/><stop offset="1" stop-color="#14aeea"/></linearGradient><linearGradient id="k46mbB" x1="180.53" x2="141" y1="223.97" y2="214.94" gradientUnits="userSpaceOnUse"><stop offset="0" stop-color="#2ee8a9"/><stop offset="1" stop-color="#14aeea"/><stop offset="1" stop-color="#14aeea"/></linearGradient><linearGradient id="k46mbC" x1="80.53" x2="41" y1="103.97" y2="94.94" gradientUnits="userSpaceOnUse"><stop offset="0" stop-color="#2ee8a9"/><stop offset="1" stop-color="#14aeea"/><stop offset="1" stop-color="#14aeea"/></linearGradient><linearGradient id="k46mbD" x1="200.53" x2="161" y1="103.97" y2="94.94" gradientUnits="userSpaceOnUse"><stop offset="0" stop-color="#2ee8a9"/><stop offset="1" stop-color="#14aeea"/><stop offset="1" stop-color="#14aeea"/></linearGradient><linearGradient id="k46mbE" x1="80.53" x2="41" y1="223.97" y2="214.94" gradientUnits="userSpaceOnUse"><stop offset="0" stop-color="#2ee8a9"/><stop offset="1" stop-color="#14aeea"/><stop offset="1" stop-color="#14aeea"/></linearGradient><linearGradient id="k46mbF" x1="200.53" x2="161" y1="223.97" y2="214.94" gradientUnits="userSpaceOnUse"><stop offset="0" stop-color="#2ee8a9"/><stop offset="1" stop-color="#14aeea"/><stop offset="1" stop-color="#14aeea"/></linearGradient><linearGradient id="k46mbG" x1="100.53" x2="61" y1="103.97" y2="94.94" gradientUnits="userSpaceOnUse"><stop offset="0" stop-color="#2ee8a9"/><stop offset="1" stop-color="#14aeea"/><stop offset="1" stop-color="#14aeea"/></linearGradient><linearGradient id="k46mbH" x1="220.53" x2="181" y1="103.97" y2="94.94" gradientUnits="userSpaceOnUse"><stop offset="0" stop-color="#2ee8a9"/><stop offset="1" stop-color="#14aeea"/><stop offset="1" stop-color="#14aeea"/></linearGradient><linearGradient id="k46mbI" x1="100.53" x2="61" y1="223.97" y2="214.94" gradientUnits="userSpaceOnUse"><stop offset="0" stop-color="#2ee8a9"/><stop offset="1" stop-color="#14aeea"/><stop offset="1" stop-color="#14aeea"/></linearGradient><linearGradient id="k46mbJ" x1="220.53" x2="181" y1="223.97" y2="214.94" gradientUnits="userSpaceOnUse"><stop offset="0" stop-color="#2ee8a9"/><stop offset="1" stop-color="#14aeea"/><stop offset="1" stop-color="#14aeea"/></linearGradient><linearGradient id="k46mbK" x1="120.53" x2="81" y1="103.97" y2="94.94" gradientUnits="userSpaceOnUse"><stop offset="0" stop-color="#2ee8a9"/><stop offset="1" stop-color="#14aeea"/><stop offset="1" stop-color="#14aeea"/></linearGradient><linearGradient id="k46mbL" x1="240.53" x2="201" y1="103.97" y2="94.94" gradientUnits="userSpaceOnUse"><stop offset="0" stop-color="#2ee8a9"/><stop offset="1" stop-color="#14aeea"/><stop offset="1" stop-color="#14aeea"/></linearGradient><linearGradient id="k46mbM" x1="120.53" x2="81" y1="223.97" y2="214.94" gradientUnits="userSpaceOnUse"><stop offset="0" stop-color="#2ee8a9"/><stop offset="1" stop-color="#14aeea"/><stop offset="1" stop-color="#14aeea"/></linearGradient><linearGradient id="k46mbN" x1="240.53" x2="201" y1="223.97" y2="214.94" gradientUnits="userSpaceOnUse"><stop offset="0" stop-color="#2ee8a9"/><stop offset="1" stop-color="#14aeea"/><stop offset="1" stop-color="#14aeea"/></linearGradient></defs><g><g><g><path fill="url(#k46ma)" d="M5 10A5 5 0 1 0 5 0a5 5 0 0 0 0 10z"/></g><g><path fill="url(#k46mb)" d="M125 10a5 5 0 1 0 0-10 5 5 0 0 0 0 10z"/></g><g><path fill="url(#k46mc)" d="M5 130a5 5 0 1 0 0-10 5 5 0 0 0 0 10z"/></g><g><path fill="url(#k46md)" d="M125 130a5 5 0 1 0 0-10 5 5 0 0 0 0 10z"/></g><g><path fill="url(#k46me)" d="M25 10a5 5 0 1 0 0-10 5 5 0 0 0 0 10z"/></g><g><path fill="url(#k46mf)" d="M145 10a5 5 0 1 0 0-10 5 5 0 0 0 0 10z"/></g><g><path fill="url(#k46mg)" d="M25 130a5 5 0 1 0 0-10 5 5 0 0 0 0 10z"/></g><g><path fill="url(#k46mh)" d="M145 130a5 5 0 1 0 0-10 5 5 0 0 0 0 10z"/></g><g><path fill="url(#k46mi)" d="M45 10a5 5 0 1 0 0-10 5 5 0 0 0 0 10z"/></g><g><path fill="url(#k46mj)" d="M165 10a5 5 0 1 0 0-10 5 5 0 0 0 0 10z"/></g><g><path fill="url(#k46mk)" d="M45 130a5 5 0 1 0 0-10 5 5 0 0 0 0 10z"/></g><g><path fill="url(#k46ml)" d="M165 130a5 5 0 1 0 0-10 5 5 0 0 0 0 10z"/></g><g><path fill="url(#k46mm)" d="M65 10a5 5 0 1 0 0-10 5 5 0 0 0 0 10z"/></g><g><path fill="url(#k46mn)" d="M185 10a5 5 0 1 0 0-10 5 5 0 0 0 0 10z"/></g><g><path fill="url(#k46mo)" d="M65 130a5 5 0 1 0 0-10 5 5 0 0 0 0 10z"/></g><g><path fill="url(#k46mp)" d="M185 130a5 5 0 1 0 0-10 5 5 0 0 0 0 10z"/></g><g><path fill="url(#k46mq)" d="M85 10a5 5 0 1 0 0-10 5 5 0 0 0 0 10z"/></g><g><path fill="url(#k46mr)" d="M205 10a5 5 0 1 0 0-10 5 5 0 0 0 0 10z"/></g><g><path fill="url(#k46ms)" d="M85 130a5 5 0 1 0 0-10 5 5 0 0 0 0 10z"/></g><g><path fill="url(#k46mt)" d="M205 130a5 5 0 1 0 0-10 5 5 0 0 0 0 10z"/></g><g><path fill="url(#k46mu)" d="M105 10a5 5 0 1 0 0-10 5 5 0 0 0 0 10z"/></g><g><path fill="url(#k46mv)" d="M225 10a5 5 0 1 0 0-10 5 5 0 0 0 0 10z"/></g><g><path fill="url(#k46mw)" d="M105 130a5 5 0 1 0 0-10 5 5 0 0 0 0 10z"/></g><g><path fill="url(#k46mx)" d="M225 130a5 5 0 1 0 0-10 5 5 0 0 0 0 10z"/></g><g><path fill="url(#k46my)" d="M5 30a5 5 0 1 0 0-10 5 5 0 0 0 0 10z"/></g><g><path fill="url(#k46mz)" d="M125 30a5 5 0 1 0 0-10 5 5 0 0 0 0 10z"/></g><g><path fill="url(#k46mA)" d="M5 150a5 5 0 1 0 0-10 5 5 0 0 0 0 10z"/></g><g><path fill="url(#k46mB)" d="M125 150a5 5 0 1 0 0-10 5 5 0 0 0 0 10z"/></g><g><path fill="url(#k46mC)" d="M25 30a5 5 0 1 0 0-10 5 5 0 0 0 0 10z"/></g><g><path fill="url(#k46mD)" d="M145 30a5 5 0 1 0 0-10 5 5 0 0 0 0 10z"/></g><g><path fill="url(#k46mE)" d="M25 150a5 5 0 1 0 0-10 5 5 0 0 0 0 10z"/></g><g><path fill="url(#k46mF)" d="M145 150a5 5 0 1 0 0-10 5 5 0 0 0 0 10z"/></g><g><path fill="url(#k46mG)" d="M45 30a5 5 0 1 0 0-10 5 5 0 0 0 0 10z"/></g><g><path fill="url(#k46mH)" d="M165 30a5 5 0 1 0 0-10 5 5 0 0 0 0 10z"/></g><g><path fill="url(#k46mI)" d="M45 150a5 5 0 1 0 0-10 5 5 0 0 0 0 10z"/></g><g><path fill="url(#k46mJ)" d="M165 150a5 5 0 1 0 0-10 5 5 0 0 0 0 10z"/></g><g><path fill="url(#k46mK)" d="M65 30a5 5 0 1 0 0-10 5 5 0 0 0 0 10z"/></g><g><path fill="url(#k46mL)" d="M185 30a5 5 0 1 0 0-10 5 5 0 0 0 0 10z"/></g><g><path fill="url(#k46mM)" d="M65 150a5 5 0 1 0 0-10 5 5 0 0 0 0 10z"/></g><g><path fill="url(#k46mN)" d="M185 150a5 5 0 1 0 0-10 5 5 0 0 0 0 10z"/></g><g><path fill="url(#k46mO)" d="M85 30a5 5 0 1 0 0-10 5 5 0 0 0 0 10z"/></g><g><path fill="url(#k46mP)" d="M205 30a5 5 0 1 0 0-10 5 5 0 0 0 0 10z"/></g><g><path fill="url(#k46mQ)" d="M85 150a5 5 0 1 0 0-10 5 5 0 0 0 0 10z"/></g><g><path fill="url(#k46mR)" d="M205 150a5 5 0 1 0 0-10 5 5 0 0 0 0 10z"/></g><g><path fill="url(#k46mS)" d="M105 30a5 5 0 1 0 0-10 5 5 0 0 0 0 10z"/></g><g><path fill="url(#k46mT)" d="M225 30a5 5 0 1 0 0-10 5 5 0 0 0 0 10z"/></g><g><path fill="url(#k46mU)" d="M105 150a5 5 0 1 0 0-10 5 5 0 0 0 0 10z"/></g><g><path fill="url(#k46mV)" d="M225 150a5 5 0 1 0 0-10 5 5 0 0 0 0 10z"/></g><g><path fill="url(#k46mW)" d="M5 50a5 5 0 1 0 0-10 5 5 0 0 0 0 10z"/></g><g><path fill="url(#k46mX)" d="M125 50a5 5 0 1 0 0-10 5 5 0 0 0 0 10z"/></g><g><path fill="url(#k46mY)" d="M5 170a5 5 0 1 0 0-10 5 5 0 0 0 0 10z"/></g><g><path fill="url(#k46mZ)" d="M125 170a5 5 0 1 0 0-10 5 5 0 0 0 0 10z"/></g><g><path fill="url(#k46maa)" d="M25 50a5 5 0 1 0 0-10 5 5 0 0 0 0 10z"/></g><g><path fill="url(#k46mab)" d="M145 50a5 5 0 1 0 0-10 5 5 0 0 0 0 10z"/></g><g><path fill="url(#k46mac)" d="M25 170a5 5 0 1 0 0-10 5 5 0 0 0 0 10z"/></g><g><path fill="url(#k46mad)" d="M145 170a5 5 0 1 0 0-10 5 5 0 0 0 0 10z"/></g><g><path fill="url(#k46mae)" d="M45 50a5 5 0 1 0 0-10 5 5 0 0 0 0 10z"/></g><g><path fill="url(#k46maf)" d="M165 50a5 5 0 1 0 0-10 5 5 0 0 0 0 10z"/></g><g><path fill="url(#k46mag)" d="M45 170a5 5 0 1 0 0-10 5 5 0 0 0 0 10z"/></g><g><path fill="url(#k46mah)" d="M165 170a5 5 0 1 0 0-10 5 5 0 0 0 0 10z"/></g><g><path fill="url(#k46mai)" d="M65 50a5 5 0 1 0 0-10 5 5 0 0 0 0 10z"/></g><g><path fill="url(#k46maj)" d="M185 50a5 5 0 1 0 0-10 5 5 0 0 0 0 10z"/></g><g><path fill="url(#k46mak)" d="M65 170a5 5 0 1 0 0-10 5 5 0 0 0 0 10z"/></g><g><path fill="url(#k46mal)" d="M185 170a5 5 0 1 0 0-10 5 5 0 0 0 0 10z"/></g><g><path fill="url(#k46mam)" d="M85 50a5 5 0 1 0 0-10 5 5 0 0 0 0 10z"/></g><g><path fill="url(#k46man)" d="M205 50a5 5 0 1 0 0-10 5 5 0 0 0 0 10z"/></g><g><path fill="url(#k46mao)" d="M85 170a5 5 0 1 0 0-10 5 5 0 0 0 0 10z"/></g><g><path fill="url(#k46map)" d="M205 170a5 5 0 1 0 0-10 5 5 0 0 0 0 10z"/></g><g><path fill="url(#k46maq)" d="M105 50a5 5 0 1 0 0-10 5 5 0 0 0 0 10z"/></g><g><path fill="url(#k46mar)" d="M225 50a5 5 0 1 0 0-10 5 5 0 0 0 0 10z"/></g><g><path fill="url(#k46mas)" d="M105 170a5 5 0 1 0 0-10 5 5 0 0 0 0 10z"/></g><g><path fill="url(#k46mat)" d="M225 170a5 5 0 1 0 0-10 5 5 0 0 0 0 10z"/></g><g><path fill="url(#k46mau)" d="M5 70a5 5 0 1 0 0-10 5 5 0 0 0 0 10z"/></g><g><path fill="url(#k46mav)" d="M125 70a5 5 0 1 0 0-10 5 5 0 0 0 0 10z"/></g><g><path fill="url(#k46maw)" d="M5 190a5 5 0 1 0 0-10 5 5 0 0 0 0 10z"/></g><g><path fill="url(#k46max)" d="M125 190a5 5 0 1 0 0-10 5 5 0 0 0 0 10z"/></g><g><path fill="url(#k46may)" d="M25 70a5 5 0 1 0 0-10 5 5 0 0 0 0 10z"/></g><g><path fill="url(#k46maz)" d="M145 70a5 5 0 1 0 0-10 5 5 0 0 0 0 10z"/></g><g><path fill="url(#k46maA)" d="M25 190a5 5 0 1 0 0-10 5 5 0 0 0 0 10z"/></g><g><path fill="url(#k46maB)" d="M145 190a5 5 0 1 0 0-10 5 5 0 0 0 0 10z"/></g><g><path fill="url(#k46maC)" d="M45 70a5 5 0 1 0 0-10 5 5 0 0 0 0 10z"/></g><g><path fill="url(#k46maD)" d="M165 70a5 5 0 1 0 0-10 5 5 0 0 0 0 10z"/></g><g><path fill="url(#k46maE)" d="M45 190a5 5 0 1 0 0-10 5 5 0 0 0 0 10z"/></g><g><path fill="url(#k46maF)" d="M165 190a5 5 0 1 0 0-10 5 5 0 0 0 0 10z"/></g><g><path fill="url(#k46maG)" d="M65 70a5 5 0 1 0 0-10 5 5 0 0 0 0 10z"/></g><g><path fill="url(#k46maH)" d="M185 70a5 5 0 1 0 0-10 5 5 0 0 0 0 10z"/></g><g><path fill="url(#k46maI)" d="M65 190a5 5 0 1 0 0-10 5 5 0 0 0 0 10z"/></g><g><path fill="url(#k46maJ)" d="M185 190a5 5 0 1 0 0-10 5 5 0 0 0 0 10z"/></g><g><path fill="url(#k46maK)" d="M85 70a5 5 0 1 0 0-10 5 5 0 0 0 0 10z"/></g><g><path fill="url(#k46maL)" d="M205 70a5 5 0 1 0 0-10 5 5 0 0 0 0 10z"/></g><g><path fill="url(#k46maM)" d="M85 190a5 5 0 1 0 0-10 5 5 0 0 0 0 10z"/></g><g><path fill="url(#k46maN)" d="M205 190a5 5 0 1 0 0-10 5 5 0 0 0 0 10z"/></g><g><path fill="url(#k46maO)" d="M105 70a5 5 0 1 0 0-10 5 5 0 0 0 0 10z"/></g><g><path fill="url(#k46maP)" d="M225 70a5 5 0 1 0 0-10 5 5 0 0 0 0 10z"/></g><g><path fill="url(#k46maQ)" d="M105 190a5 5 0 1 0 0-10 5 5 0 0 0 0 10z"/></g><g><path fill="url(#k46maR)" d="M225 190a5 5 0 1 0 0-10 5 5 0 0 0 0 10z"/></g><g><path fill="url(#k46maS)" d="M5 90a5 5 0 1 0 0-10 5 5 0 0 0 0 10z"/></g><g><path fill="url(#k46maT)" d="M125 90a5 5 0 1 0 0-10 5 5 0 0 0 0 10z"/></g><g><path fill="url(#k46maU)" d="M5 210a5 5 0 1 0 0-10 5 5 0 0 0 0 10z"/></g><g><path fill="url(#k46maV)" d="M125 210a5 5 0 1 0 0-10 5 5 0 0 0 0 10z"/></g><g><path fill="url(#k46maW)" d="M25 90a5 5 0 1 0 0-10 5 5 0 0 0 0 10z"/></g><g><path fill="url(#k46maX)" d="M145 90a5 5 0 1 0 0-10 5 5 0 0 0 0 10z"/></g><g><path fill="url(#k46maY)" d="M25 210a5 5 0 1 0 0-10 5 5 0 0 0 0 10z"/></g><g><path fill="url(#k46maZ)" d="M145 210a5 5 0 1 0 0-10 5 5 0 0 0 0 10z"/></g><g><path fill="url(#k46mba)" d="M45 90a5 5 0 1 0 0-10 5 5 0 0 0 0 10z"/></g><g><path fill="url(#k46mbb)" d="M165 90a5 5 0 1 0 0-10 5 5 0 0 0 0 10z"/></g><g><path fill="url(#k46mbc)" d="M45 210a5 5 0 1 0 0-10 5 5 0 0 0 0 10z"/></g><g><path fill="url(#k46mbd)" d="M165 210a5 5 0 1 0 0-10 5 5 0 0 0 0 10z"/></g><g><path fill="url(#k46mbe)" d="M65 90a5 5 0 1 0 0-10 5 5 0 0 0 0 10z"/></g><g><path fill="url(#k46mbf)" d="M185 90a5 5 0 1 0 0-10 5 5 0 0 0 0 10z"/></g><g><path fill="url(#k46mbg)" d="M65 210a5 5 0 1 0 0-10 5 5 0 0 0 0 10z"/></g><g><path fill="url(#k46mbh)" d="M185 210a5 5 0 1 0 0-10 5 5 0 0 0 0 10z"/></g><g><path fill="url(#k46mbi)" d="M85 90a5 5 0 1 0 0-10 5 5 0 0 0 0 10z"/></g><g><path fill="url(#k46mbj)" d="M205 90a5 5 0 1 0 0-10 5 5 0 0 0 0 10z"/></g><g><path fill="url(#k46mbk)" d="M85 210a5 5 0 1 0 0-10 5 5 0 0 0 0 10z"/></g><g><path fill="url(#k46mbl)" d="M205 210a5 5 0 1 0 0-10 5 5 0 0 0 0 10z"/></g><g><path fill="url(#k46mbm)" d="M105 90a5 5 0 1 0 0-10 5 5 0 0 0 0 10z"/></g><g><path fill="url(#k46mbn)" d="M225 90a5 5 0 1 0 0-10 5 5 0 0 0 0 10z"/></g><g><path fill="url(#k46mbo)" d="M105 210a5 5 0 1 0 0-10 5 5 0 0 0 0 10z"/></g><g><path fill="url(#k46mbp)" d="M225 210a5 5 0 1 0 0-10 5 5 0 0 0 0 10z"/></g><g><path fill="url(#k46mbq)" d="M5 110a5 5 0 1 0 0-10 5 5 0 0 0 0 10z"/></g><g><path fill="url(#k46mbr)" d="M125 110a5 5 0 1 0 0-10 5 5 0 0 0 0 10z"/></g><g><path fill="url(#k46mbs)" d="M5 230a5 5 0 1 0 0-10 5 5 0 0 0 0 10z"/></g><g><path fill="url(#k46mbt)" d="M125 230a5 5 0 1 0 0-10 5 5 0 0 0 0 10z"/></g><g><path fill="url(#k46mbu)" d="M25 110a5 5 0 1 0 0-10 5 5 0 0 0 0 10z"/></g><g><path fill="url(#k46mbv)" d="M145 110a5 5 0 1 0 0-10 5 5 0 0 0 0 10z"/></g><g><path fill="url(#k46mbw)" d="M25 230a5 5 0 1 0 0-10 5 5 0 0 0 0 10z"/></g><g><path fill="url(#k46mbx)" d="M145 230a5 5 0 1 0 0-10 5 5 0 0 0 0 10z"/></g><g><path fill="url(#k46mby)" d="M45 110a5 5 0 1 0 0-10 5 5 0 0 0 0 10z"/></g><g><path fill="url(#k46mbz)" d="M165 110a5 5 0 1 0 0-10 5 5 0 0 0 0 10z"/></g><g><path fill="url(#k46mbA)" d="M45 230a5 5 0 1 0 0-10 5 5 0 0 0 0 10z"/></g><g><path fill="url(#k46mbB)" d="M165 230a5 5 0 1 0 0-10 5 5 0 0 0 0 10z"/></g><g><path fill="url(#k46mbC)" d="M65 110a5 5 0 1 0 0-10 5 5 0 0 0 0 10z"/></g><g><path fill="url(#k46mbD)" d="M185 110a5 5 0 1 0 0-10 5 5 0 0 0 0 10z"/></g><g><path fill="url(#k46mbE)" d="M65 230a5 5 0 1 0 0-10 5 5 0 0 0 0 10z"/></g><g><path fill="url(#k46mbF)" d="M185 230a5 5 0 1 0 0-10 5 5 0 0 0 0 10z"/></g><g><path fill="url(#k46mbG)" d="M85 110a5 5 0 1 0 0-10 5 5 0 0 0 0 10z"/></g><g><path fill="url(#k46mbH)" d="M205 110a5 5 0 1 0 0-10 5 5 0 0 0 0 10z"/></g><g><path fill="url(#k46mbI)" d="M85 230a5 5 0 1 0 0-10 5 5 0 0 0 0 10z"/></g><g><path fill="url(#k46mbJ)" d="M205 230a5 5 0 1 0 0-10 5 5 0 0 0 0 10z"/></g><g><path fill="url(#k46mbK)" d="M105 110a5 5 0 1 0 0-10 5 5 0 0 0 0 10z"/></g><g><path fill="url(#k46mbL)" d="M225 110a5 5 0 1 0 0-10 5 5 0 0 0 0 10z"/></g><g><path fill="url(#k46mbM)" d="M105 230a5 5 0 1 0 0-10 5 5 0 0 0 0 10z"/></g><g><path fill="url(#k46mbN)" d="M225 230a5 5 0 1 0 0-10 5 5 0 0 0 0 10z"/></g></g></g></svg>