<svg xmlns="http://www.w3.org/2000/svg" width="24" height="20" viewBox="0 0 24 20"><g><g><g><path fill="#3b43f2" d="M23.054 13.264c-.202.245-.44.466-.704.643v2.743h.343a1.31 1.31 0 0 0 1.31-1.298V12.04z"/></g><g><path fill="#3b43f2" d="M17.265 7.407h3.533c.104 0 .214-.013.324-.037V3.868a1.3 1.3 0 0 0-1.304-1.298H1.31A1.31 1.31 0 0 0 0 3.868v14.039c.006.722.588 1.31 1.31 1.316h18.508a1.316 1.316 0 0 0 1.304-1.316l-.006-3.557a5.304 5.304 0 0 1-.324.03h-3.527a3.486 3.486 0 1 1 0-6.973z"/></g><g><path fill="#3b43f2" d="M22.692 0H4.184A1.316 1.316 0 0 0 2.88 1.316v.03h16.94a2.524 2.524 0 0 1 2.53 2.523v2.56l1.652-2.131V1.316A1.325 1.325 0 0 0 22.692 0z"/></g><g><path fill="#3b43f2" d="M18.64 11.51h-1.469a.614.614 0 0 1-.612-.612c0-.337.275-.612.612-.612h1.47c.336 0 .612.275.612.612a.614.614 0 0 1-.612.612zm5.358-5.21l-.95 1.224a2.847 2.847 0 0 1-2.252 1.109h-3.527a2.267 2.267 0 0 0-2.259 2.265c0 1.249 1.01 2.26 2.26 2.265h3.532c.502-.006.98-.239 1.286-.636l1.916-2.486z"/></g></g></g></svg>