<?xml version="1.0" encoding="UTF-8"?>
<svg width="376px" height="478px" viewBox="0 0 376 478" version="1.1" xmlns="http://www.w3.org/2000/svg" xmlns:xlink="http://www.w3.org/1999/xlink">
    <!-- Generator: Sketch 60.1 (88133) - https://sketch.com -->
    <title>lock</title>
    <desc>Created with Sketch.</desc>
    <g id="Main-Files" stroke="none" stroke-width="1" fill="none" fill-rule="evenodd">
        <g id="lock" fill="#3B43F2" fill-rule="nonzero">
            <path d="M358.6,170.667 L341.533,170.667 L341.533,153.6 C341.533,68.769 272.764,0 187.933,0 C103.102,0 34.333,68.769 34.333,153.6 L34.333,170.667 L17.267,170.667 C7.841,170.667 0.2,178.308 0.2,187.734 L0.2,460.8 C0.2,470.226 7.841,477.867 17.267,477.867 L358.6,477.867 C368.026,477.867 375.667,470.226 375.667,460.8 L375.667,187.733 C375.667,178.308 368.026,170.667 358.6,170.667 Z M236.205,324.055 C231.05,338.636 219.581,350.105 205,355.26 L205,392.534 C205,401.96 197.359,409.601 187.933,409.601 C178.507,409.601 170.866,401.96 170.866,392.534 L170.866,355.26 C144.206,345.834 130.235,316.581 139.661,289.921 C149.087,263.261 178.34,249.29 205,258.716 C231.66,268.142 245.631,297.395 236.205,324.055 Z M307.4,170.667 L68.467,170.667 L68.467,153.6 C68.467,87.62 121.954,34.133 187.934,34.133 C253.914,34.133 307.4,87.62 307.4,153.6 L307.4,170.667 Z" id="Shape"></path>
        </g>
    </g>
</svg>