<svg xmlns="http://www.w3.org/2000/svg" width="184" height="38" viewBox="0 0 184 38"><defs><linearGradient id="desha" x1="51.7" x2="23.76" y1="19.35" y2="20.8" gradientUnits="userSpaceOnUse"><stop offset="0" stop-color="#2ee8a9"/><stop offset="1" stop-color="#14aeea"/></linearGradient><linearGradient id="deshb" x1="30.36" x2="3.56" y1="12.89" y2="10.26" gradientUnits="userSpaceOnUse"><stop offset="0" stop-color="#2ee8a9"/><stop offset="1" stop-color="#14aeea"/></linearGradient><linearGradient id="deshc" x1="55.16" x2="-6.51" y1="13.13" y2="-17.47" gradientUnits="userSpaceOnUse"><stop offset="0" stop-color="#2ee8a9"/><stop offset="1" stop-color="#14aeea"/><stop offset="1" stop-color="#14aeea"/></linearGradient><linearGradient id="deshd" x1="18.96" x2="-3.06" y1="21.54" y2="34.45" gradientUnits="userSpaceOnUse"><stop offset="0" stop-color="#2ee8a9"/><stop offset="1" stop-color="#ae48fc"/></linearGradient><linearGradient id="deshe" x1="29.4" x2="43.3" y1="2.63" y2="22.42" gradientUnits="userSpaceOnUse"><stop offset="0" stop-color="#2ee8a9"/><stop offset="1" stop-color="#ae48fc"/></linearGradient></defs><g><g><g transform="rotate(-30 42 19.5)"><path fill="url(#desha)" d="M34.08 6.85a7 7 0 0 1 7-7h1.6a7 7 0 0 1 7 7v25a7 7 0 0 1-7 7h-1.6a7 7 0 0 1-7-7z"/></g><g transform="rotate(30 14.5 19)"><path fill="url(#deshb)" d="M6.78 6.55a7 7 0 0 1 7-7h1.6a7 7 0 0 1 7 7v25a7 7 0 0 1-7 7h-1.6a7 7 0 0 1-7-7z"/></g><g transform="rotate(30 31 16.5)"><path fill="url(#deshc)" d="M23.13 6.68a7 7 0 0 1 7-7h1.6a7 7 0 0 1 7 7v19.9a7 7 0 0 1-7 7h-1.6a7 7 0 0 1-7-7z"/></g><g opacity=".7"><path fill="url(#deshd)" d="M8.8 37.14a7.8 7.8 0 1 0 0-15.6 7.8 7.8 0 0 0 0 15.6z"/></g><g opacity=".7" transform="rotate(180 35.5 8.5)"><path fill="url(#deshe)" d="M35.5 16.3a7.8 7.8 0 1 0 0-15.6 7.8 7.8 0 0 0 0 15.6z"/></g></g><g><path fill="#fff" d="M170.2 24.1V10.428h3.3v2.555c.93-1.754 2.555-2.649 4.874-2.683 1.557 0 2.784.473 3.68 1.418.898.946 1.346 2.228 1.346 3.846V24.1h-3.325v-7.564c0-.955-.271-1.708-.813-2.262-.541-.554-1.277-.83-2.208-.83-1.1.016-1.967.391-2.602 1.124-.635.732-.952 1.67-.952 2.81V24.1zm-8.044-3.081c.678-.455 1.06-1.016 1.144-1.685V18.1h-3.432c-.882 0-1.53.133-1.945.399-.415.265-.623.698-.623 1.298 0 .583.216 1.046.648 1.389.433.343 1.021.514 1.767.514.95 0 1.763-.227 2.44-.681zm-5.925 2.538c-.715-.363-1.265-.864-1.651-1.504a4.076 4.076 0 0 1-.58-2.149c0-1.263.445-2.253 1.336-2.97.89-.716 2.15-1.082 3.78-1.099h3.933v-.354c0-.792-.26-1.407-.782-1.845-.52-.438-1.277-.657-2.268-.657-1.277 0-2.613.421-4.008 1.264l-1.184-2.275c1.058-.59 2.02-1.015 2.886-1.276.865-.261 1.877-.392 3.037-.392 1.747 0 3.104.421 4.07 1.264.967.842 1.458 2.022 1.475 3.538l.025 8.846h-3.226v-1.643a4.42 4.42 0 0 1-1.815 1.34c-.74.303-1.588.455-2.546.455-.94 0-1.768-.181-2.482-.543zm-8.531.543V10.6h3.3v13.5zm.51-15.854c-.34-.369-.51-.83-.51-1.383 0-.57.17-1.04.51-1.41.341-.368.771-.553 1.29-.553s.949.185 1.29.554c.34.369.51.838.51 1.409 0 .553-.17 1.014-.51 1.383-.341.37-.771.554-1.29.554s-.949-.185-1.29-.554zm-8.8 12.023c.727-.753 1.09-1.726 1.09-2.919s-.363-2.166-1.09-2.92c-.727-.753-1.664-1.13-2.81-1.13-1.146 0-2.078.377-2.797 1.13-.718.754-1.086 1.727-1.103 2.92.017 1.193.385 2.166 1.103 2.92.719.753 1.651 1.13 2.797 1.13 1.146 0 2.083-.377 2.81-1.13zm-6.913 2.96c-.977-.582-1.738-1.399-2.281-2.452-.544-1.052-.816-2.261-.816-3.626 0-1.347.268-2.539.803-3.575a5.84 5.84 0 0 1 2.268-2.413c.977-.573 2.094-.859 3.352-.859 1.036 0 1.945.202 2.727.606a5.173 5.173 0 0 1 1.937 1.744V5.2h3.313v18.748h-3.313v-2.173a4.905 4.905 0 0 1-1.899 1.731c-.773.396-1.67.594-2.689.594-1.291 0-2.425-.29-3.402-.872zm-9.097.671V10.4h3.3v13.5zm.21-15.654c-.34-.369-.51-.83-.51-1.383 0-.57.17-1.04.51-1.41.341-.368.771-.553 1.29-.553s.949.185 1.29.554c.34.369.51.838.51 1.409 0 .553-.17 1.014-.51 1.383-.341.37-.771.554-1.29.554s-.949-.185-1.29-.554zM113.2 24.1V10.428h3.25v2.632c.45-.886 1.063-1.563 1.837-2.032.776-.468 1.68-.711 2.713-.728v3.22c-1.383-.085-2.487.243-3.312.984-.825.741-1.238 1.742-1.238 3.003V24.1zm-6-7.8c-.034-1.006-.369-1.808-1.003-2.405-.634-.597-1.474-.895-2.52-.895-.977 0-1.796.294-2.456.883-.66.588-1.067 1.394-1.221 2.417zm-7.17 6.938a6.05 6.05 0 0 1-2.462-2.423c-.579-1.04-.868-2.237-.868-3.59 0-1.353.293-2.553.88-3.602a6.216 6.216 0 0 1 2.463-2.448c1.055-.583 2.254-.875 3.598-.875 2.178 0 3.816.617 4.913 1.852 1.097 1.234 1.646 2.968 1.646 5.2 0 .44-.009.77-.026.99h-10.08c.221.964.676 1.72 1.365 2.27.69.55 1.536.824 2.54.824a5.22 5.22 0 0 0 2.003-.393 4.902 4.902 0 0 0 1.672-1.129l1.786 1.852a6.91 6.91 0 0 1-2.488 1.725c-.979.406-2.063.609-3.254.609-1.395 0-2.624-.287-3.688-.863zM71.5 24.1V10.428h3.308v2.53c.9-1.738 2.494-2.624 4.784-2.658 1.187 0 2.184.285 2.99.856.806.57 1.37 1.376 1.692 2.415.865-2.147 2.553-3.237 5.064-3.271 1.544 0 2.757.473 3.639 1.418.882.946 1.323 2.228 1.323 3.846V24.1h-3.333v-7.564c0-.972-.268-1.734-.802-2.288-.534-.553-1.26-.83-2.176-.83-1.051.034-1.887.417-2.506 1.15-.62.732-.929 1.66-.929 2.785V24.1h-3.333v-7.564c0-.972-.263-1.734-.79-2.288-.525-.553-1.246-.83-2.162-.83-1.069.034-1.913.417-2.532 1.15-.62.732-.929 1.66-.929 2.785V24.1z"/></g><g><g><text dominant-baseline="text-before-edge" style="font-kerning:normal" fill="#fff" font-family="'Montserrat','Montserrat-Regular'" font-size="7.2" transform="translate(71 29)"><tspan style="font-kerning:normal">Network</tspan></text></g></g></g></svg>