<svg xmlns="http://www.w3.org/2000/svg" width="56" height="38" viewBox="0 0 56 38"><defs><linearGradient id="10nia" x1="51.7" x2="23.76" y1="19.35" y2="20.8" gradientUnits="userSpaceOnUse"><stop offset="0" stop-color="#2ee8a9"/><stop offset="1" stop-color="#14aeea"/></linearGradient><linearGradient id="10nib" x1="30.36" x2="3.56" y1="12.89" y2="10.26" gradientUnits="userSpaceOnUse"><stop offset="0" stop-color="#2ee8a9"/><stop offset="1" stop-color="#14aeea"/></linearGradient><linearGradient id="10nic" x1="55.16" x2="-6.51" y1="13.13" y2="-17.47" gradientUnits="userSpaceOnUse"><stop offset="0" stop-color="#2ee8a9"/><stop offset="1" stop-color="#14aeea"/><stop offset="1" stop-color="#14aeea"/></linearGradient><linearGradient id="10nid" x1="18.96" x2="-3.06" y1="21.54" y2="34.45" gradientUnits="userSpaceOnUse"><stop offset="0" stop-color="#2ee8a9"/><stop offset="1" stop-color="#ae48fc"/></linearGradient><linearGradient id="10nie" x1="29.4" x2="43.3" y1="2.63" y2="22.42" gradientUnits="userSpaceOnUse"><stop offset="0" stop-color="#2ee8a9"/><stop offset="1" stop-color="#ae48fc"/></linearGradient></defs><g><g><g transform="rotate(-30 42 19.5)"><path fill="url(#10nia)" d="M34.08 6.85a7 7 0 0 1 7-7h1.6a7 7 0 0 1 7 7v25a7 7 0 0 1-7 7h-1.6a7 7 0 0 1-7-7z"/></g><g transform="rotate(30 14.5 19)"><path fill="url(#10nib)" d="M6.78 6.55a7 7 0 0 1 7-7h1.6a7 7 0 0 1 7 7v25a7 7 0 0 1-7 7h-1.6a7 7 0 0 1-7-7z"/></g><g transform="rotate(30 31 16.5)"><path fill="url(#10nic)" d="M23.13 6.68a7 7 0 0 1 7-7h1.6a7 7 0 0 1 7 7v19.9a7 7 0 0 1-7 7h-1.6a7 7 0 0 1-7-7z"/></g><g opacity=".7"><path fill="url(#10nid)" d="M8.8 37.14a7.8 7.8 0 1 0 0-15.6 7.8 7.8 0 0 0 0 15.6z"/></g><g opacity=".7" transform="rotate(180 35.5 8.5)"><path fill="url(#10nie)" d="M35.5 16.3a7.8 7.8 0 1 0 0-15.6 7.8 7.8 0 0 0 0 15.6z"/></g></g></g></svg>