<svg xmlns="http://www.w3.org/2000/svg" width="20" height="16" viewBox="0 0 20 16"><g><g><path fill="#3b43f2" d="M19.6 1.885a8.378 8.378 0 0 1-2.315.635A3.996 3.996 0 0 0 19.052.299a8.03 8.03 0 0 1-2.548.973 4.017 4.017 0 0 0-6.95 2.748c0 .318.027.624.093.916A11.373 11.373 0 0 1 1.365.733a4.046 4.046 0 0 0-.55 2.03c0 1.392.716 2.626 1.784 3.34a3.968 3.968 0 0 1-1.815-.495v.044A4.037 4.037 0 0 0 4.004 9.6a4.01 4.01 0 0 1-1.054.133c-.257 0-.517-.015-.76-.069.52 1.591 1.997 2.761 3.754 2.8a8.074 8.074 0 0 1-4.982 1.713c-.33 0-.646-.015-.962-.055a11.312 11.312 0 0 0 6.164 1.803c7.394 0 11.437-6.125 11.437-11.434 0-.178-.006-.35-.015-.52A8.016 8.016 0 0 0 19.6 1.885z"/></g></g></svg>